<?xml version="1.0" encoding="UTF-8" standalone="no"?>
<!-- Created with Inkscape (http://www.inkscape.org/) -->

<svg
   xmlns:dc="http://purl.org/dc/elements/1.1/"
   xmlns:cc="http://creativecommons.org/ns#"
   xmlns:rdf="http://www.w3.org/1999/02/22-rdf-syntax-ns#"
   xmlns:svg="http://www.w3.org/2000/svg"
   xmlns="http://www.w3.org/2000/svg"
   xmlns:sodipodi="http://sodipodi.sourceforge.net/DTD/sodipodi-0.dtd"
   xmlns:inkscape="http://www.inkscape.org/namespaces/inkscape"
   width="100"
   height="60"
   viewBox="0 0 99.999997 60"
   id="svg3765"
   version="1.1"
   inkscape:version="0.91 r13725"
   sodipodi:docname="icon-maestro.svg">
  <defs
     id="defs3767">
    <clipPath
       clipPathUnits="userSpaceOnUse"
       id="clipPath3436">
      <path
         d="m 0,71.268 119.055,0 L 119.055,0 0,0 0,71.268 Z"
         id="path3438"
         inkscape:connector-curvature="0" />
    </clipPath>
    <clipPath
       clipPathUnits="userSpaceOnUse"
       id="clipPath3350">
      <path
         d="m 0,71.236 119.055,0 L 119.055,0 0,0 0,71.236 Z"
         id="path3352"
         inkscape:connector-curvature="0" />
    </clipPath>
    <clipPath
       clipPathUnits="userSpaceOnUse"
       id="clipPath3542">
      <path
         d="m 0,39.246 121.522,0 L 121.522,0 0,0 0,39.246 Z"
         id="path3544"
         inkscape:connector-curvature="0" />
    </clipPath>
  </defs>
  <sodipodi:namedview
     id="base"
     pagecolor="#ffffff"
     bordercolor="#666666"
     borderopacity="1.0"
     inkscape:pageopacity="0.0"
     inkscape:pageshadow="2"
     inkscape:zoom="3.959798"
     inkscape:cx="47.376646"
     inkscape:cy="6.6470187"
     inkscape:document-units="px"
     inkscape:current-layer="layer1"
     showgrid="false"
     units="px"
     inkscape:window-width="1366"
     inkscape:window-height="715"
     inkscape:window-x="-8"
     inkscape:window-y="-8"
     inkscape:window-maximized="1" />
  <metadata
     id="metadata3770">
    <rdf:RDF>
      <cc:Work
         rdf:about="">
        <dc:format>image/svg+xml</dc:format>
        <dc:type
           rdf:resource="http://purl.org/dc/dcmitype/StillImage" />
        <dc:title></dc:title>
      </cc:Work>
    </rdf:RDF>
  </metadata>
  <g
     inkscape:label="Layer 1"
     inkscape:groupmode="layer"
     id="layer1"
     transform="translate(0,-992.36219)">
    <g
       transform="matrix(0.6887573,0,0,-0.67381756,8.9999998,1046.3623)"
       id="g3346">
      <g
         id="g3348"
         clip-path="url(#clipPath3350)">
        <g
           id="g3354"
           transform="translate(119.0551,35.6174)">
          <path
             d="m 0,0 c 0,-19.671 -15.944,-35.617 -35.614,-35.617 -19.668,0 -35.613,15.946 -35.613,35.617 0,19.673 15.945,35.619 35.613,35.619 C -15.944,35.619 0,19.673 0,0"
             style="fill:#e41f2d;fill-opacity:1;fill-rule:nonzero;stroke:none"
             id="path3356"
             inkscape:connector-curvature="0" />
        </g>
        <g
           id="g3358"
           transform="translate(55.9299,12.9991)">
          <path
             d="m 0,0 c -0.983,1.193 -1.889,2.453 -2.713,3.772 l 12.622,0 c 0.757,1.21 1.441,2.469 2.052,3.772 l -16.725,0 c -0.571,1.221 -1.077,2.479 -1.508,3.771 l 19.739,0 c 1.188,3.552 1.831,7.352 1.831,11.303 0,2.589 -0.276,5.113 -0.8,7.543 l -21.799,0 c 0.276,1.285 0.624,2.543 1.033,3.773 l 19.732,0 c -0.433,1.291 -0.937,2.548 -1.506,3.77 l -16.718,0 c 0.61,1.302 1.295,2.56 2.051,3.771 l 12.614,0 C 9.082,42.791 8.174,44.05 7.192,45.244 l -7.188,0 c 1.106,1.343 2.308,2.603 3.595,3.77 -6.322,5.732 -14.711,9.223 -23.914,9.223 -19.67,0 -35.615,-15.946 -35.615,-35.619 0,-19.671 15.945,-35.617 35.615,-35.617 9.204,0 17.593,3.491 23.914,9.222 C 4.887,-2.608 6.09,-1.345 7.196,0 L 0,0 Z"
             style="fill:#0099d9;fill-opacity:1;fill-rule:nonzero;stroke:none"
             id="path3360"
             inkscape:connector-curvature="0" />
        </g>
        <g
           id="g3362"
           transform="translate(115.3024,15.833)">
          <path
             d="m 0,0 0.131,0 c 0.048,0 0.1,-0.003 0.143,0.019 0.039,0.026 0.059,0.073 0.059,0.118 0,0.037 -0.024,0.083 -0.056,0.102 C 0.235,0.263 0.17,0.258 0.126,0.258 L 0,0.258 0,0 Z m 0,-0.572 -0.235,0 0,1.011 0.426,0 C 0.28,0.439 0.371,0.438 0.45,0.388 0.532,0.331 0.578,0.234 0.578,0.136 0.578,0.019 0.511,-0.086 0.403,-0.126 l 0.186,-0.446 -0.262,0 -0.153,0.399 -0.174,0 0,-0.399 z m 0.156,-0.369 c 0.483,0 0.874,0.39 0.874,0.875 0,0.483 -0.391,0.872 -0.874,0.872 -0.483,0 -0.875,-0.389 -0.875,-0.872 0,-0.485 0.392,-0.875 0.875,-0.875 m -1.151,0.875 c 0,0.634 0.515,1.15 1.151,1.15 0.635,0 1.15,-0.516 1.15,-1.15 0,-0.636 -0.515,-1.152 -1.15,-1.152 -0.636,0 -1.151,0.516 -1.151,1.152"
             style="fill:#e41f2d;fill-opacity:1;fill-rule:nonzero;stroke:none"
             id="path3364"
             inkscape:connector-curvature="0" />
        </g>
        <g
           id="g3366"
           transform="translate(56.6468,34.7551)">
          <path
             d="M 0,0 C 0,0.318 0.491,2.585 -2.064,2.635 -3.474,2.635 -4.486,1.697 -4.895,0 L 0,0 Z m 2.374,-8.762 c -1.522,-0.403 -2.994,-0.601 -4.55,-0.597 -4.964,0.005 -7.549,2.265 -7.549,6.59 0,5.051 3.291,8.766 7.758,8.766 3.654,0 5.988,-2.083 5.988,-5.346 0,-1.084 -0.158,-2.138 -0.545,-3.63 l -8.827,0 c -0.315,-2.112 1.227,-3.039 3.852,-3.039 1.572,0 2.993,0.282 4.568,0.915 L 2.374,-8.762 Z"
             style="fill:#1f3b71;fill-opacity:1;fill-rule:nonzero;stroke:none"
             id="path3368"
             inkscape:connector-curvature="0" />
        </g>
        <g
           id="g3370"
           transform="translate(62.0111,35.745)">
          <path
             d="m 0,0 c 0,-1.865 1.05,-3.155 3.439,-4.115 1.825,-0.747 2.113,-0.964 2.113,-1.632 0,-0.925 -0.807,-1.35 -2.598,-1.339 -1.345,0.01 -2.572,0.173 -4.021,0.575 l -0.641,-3.404 c 1.288,-0.298 3.093,-0.397 4.694,-0.434 4.767,0 6.968,1.561 6.968,4.935 0,2.028 -0.918,3.221 -3.182,4.111 -1.893,0.756 -2.115,0.919 -2.115,1.603 0,0.804 0.75,1.211 2.212,1.211 0.886,0 2.1,-0.082 3.251,-0.221 l 0.646,3.422 C 9.593,4.875 7.813,5.006 6.783,5.006 1.733,5.006 -0.015,2.732 0,0"
             style="fill:#1f3b71;fill-opacity:1;fill-rule:nonzero;stroke:none"
             id="path3372"
             inkscape:connector-curvature="0" />
        </g>
        <g
           id="g3374"
           transform="translate(41.2514,32.228)">
          <path
             d="m 0,0 c -0.469,0.047 -0.673,0.061 -0.995,0.061 -2.525,0 -3.806,-0.752 -3.806,-2.236 0,-0.932 0.625,-1.515 1.599,-1.515 1.815,0 3.125,1.518 3.202,3.69 m 3.251,-6.588 -3.704,0 0.089,1.552 c -1.13,-1.225 -2.634,-1.795 -4.675,-1.795 -2.416,0 -4.071,1.652 -4.071,4.028 0,3.612 2.877,5.695 7.824,5.695 0.508,0 1.154,-0.039 1.819,-0.113 0.137,0.483 0.174,0.691 0.174,0.954 0,0.989 -0.778,1.352 -2.86,1.352 C -4.205,5.077 -5.59,4.773 -6.874,4.428 l 0.632,3.313 c 2.222,0.566 3.677,0.783 5.323,0.783 3.83,0 5.854,-1.501 5.854,-4.324 C 4.967,3.446 4.705,1.935 4.573,1.273 4.423,0.31 3.361,-5.271 3.251,-6.588"
             style="fill:#1f3b71;fill-opacity:1;fill-rule:nonzero;stroke:none"
             id="path3376"
             inkscape:connector-curvature="0" />
        </g>
        <g
           id="g3378"
           transform="translate(79.7673,25.8738)">
          <path
             d="m 0,0 c -1.215,-0.333 -2.162,-0.478 -3.186,-0.478 -2.269,0 -3.507,1.159 -3.507,3.225 -0.071,0.567 0.483,3.187 0.608,3.917 0.126,0.733 2.091,11.408 2.091,11.408 l 4.407,0 -0.666,-3.532 2.26,0 -0.614,-3.605 -2.271,0 c 0,0 -1.245,-6.257 -1.245,-6.735 0,-0.759 0.459,-1.088 1.514,-1.088 0.505,0 0.895,0.047 1.196,0.137 L 0,0 Z"
             style="fill:#1f3b71;fill-opacity:1;fill-rule:nonzero;stroke:none"
             id="path3380"
             inkscape:connector-curvature="0" />
        </g>
        <g
           id="g3382"
           transform="translate(98.1647,28.9807)">
          <path
             d="m 0,0 c -1.572,-0.024 -2.526,1.295 -2.526,3.27 0,2.34 1.392,4.983 3.626,4.983 C 2.904,8.253 3.522,6.822 3.522,5.3 3.522,1.972 2.157,0 0,0 m 1.296,11.772 c -3.231,0 -5.754,-1.331 -7.221,-3.551 l 1.273,3.294 c -2.345,0.86 -3.856,-0.368 -5.223,-2.114 0,0 -0.23,-0.29 -0.457,-0.555 l 0,2.588 -4.139,0 c -0.56,-4.568 -1.552,-9.202 -2.327,-13.78 l -0.187,-0.997 4.452,0 c 0.422,2.324 0.769,4.21 1.115,5.713 0.945,4.126 2.537,5.387 4.927,4.829 -0.552,-1.186 -0.855,-2.558 -0.855,-4.078 0,-3.688 2.003,-6.706 6.975,-6.706 5.018,0 8.651,2.681 8.651,8.793 0,3.686 -2.422,6.564 -6.984,6.564"
             style="fill:#1f3b71;fill-opacity:1;fill-rule:nonzero;stroke:none"
             id="path3384"
             inkscape:connector-curvature="0" />
        </g>
        <g
           id="g3386"
           transform="translate(30.0674,25.638)">
          <path
             d="M 0,0 -4.433,0 -1.799,13.882 -7.865,0 -11.906,0 -12.645,13.802 -15.288,0 l -4.022,0 3.425,18.058 6.929,0 0.577,-10.066 4.389,10.066 7.484,0 L 0,0 Z"
             style="fill:#1f3b71;fill-opacity:1;fill-rule:nonzero;stroke:none"
             id="path3388"
             inkscape:connector-curvature="0" />
        </g>
        <g
           id="g3390"
           transform="translate(107.7767,27.9698)">
          <path
             d="m 0,0 0.131,0 c 0.048,0 0.1,-0.003 0.144,0.019 0.038,0.026 0.059,0.071 0.059,0.117 0,0.038 -0.025,0.082 -0.057,0.101 C 0.235,0.263 0.17,0.257 0.126,0.257 L 0,0.257 0,0 Z m 0,-0.573 -0.236,0 0,1.009 0.427,0 c 0.089,0 0.18,0 0.259,-0.05 0.081,-0.055 0.128,-0.152 0.128,-0.252 0,-0.115 -0.067,-0.221 -0.175,-0.262 l 0.186,-0.445 -0.262,0 -0.153,0.399 -0.174,0 0,-0.399 z m 0.156,-0.37 c 0.483,0 0.874,0.392 0.874,0.875 0,0.483 -0.391,0.874 -0.874,0.874 -0.483,0 -0.875,-0.391 -0.875,-0.874 0,-0.483 0.392,-0.875 0.875,-0.875 m -1.151,0.875 c 0,0.635 0.515,1.15 1.151,1.15 0.635,0 1.15,-0.515 1.15,-1.15 0,-0.636 -0.515,-1.151 -1.15,-1.151 -0.636,0 -1.151,0.515 -1.151,1.151"
             style="fill:#ffffff;fill-opacity:1;fill-rule:nonzero;stroke:none"
             id="path3392"
             inkscape:connector-curvature="0" />
        </g>
        <g
           id="g3394"
           transform="translate(57.7594,35.8677)">
          <path
             d="M 0,0 C 0,0.318 0.491,2.585 -2.063,2.635 -3.473,2.635 -4.485,1.697 -4.895,0 L 0,0 Z m 2.374,-8.762 c -1.521,-0.404 -2.994,-0.601 -4.549,-0.597 -4.964,0.005 -7.549,2.265 -7.549,6.59 0,5.051 3.29,8.766 7.757,8.766 3.655,0 5.988,-2.083 5.988,-5.346 0,-1.084 -0.158,-2.137 -0.544,-3.63 l -8.828,0 c -0.314,-2.111 1.227,-3.039 3.852,-3.039 1.572,0 2.993,0.282 4.569,0.917 L 2.374,-8.762 Z"
             style="fill:#ffffff;fill-opacity:1;fill-rule:nonzero;stroke:none"
             id="path3396"
             inkscape:connector-curvature="0" />
        </g>
        <g
           id="g3398"
           transform="translate(63.1245,36.8592)">
          <path
             d="m 0,0 c 0,-1.867 1.05,-3.155 3.438,-4.116 1.826,-0.748 2.113,-0.964 2.113,-1.631 0,-0.927 -0.807,-1.352 -2.597,-1.34 -1.346,0.009 -2.573,0.172 -4.02,0.575 l -0.642,-3.403 c 1.287,-0.3 3.094,-0.399 4.693,-0.436 4.767,0 6.969,1.562 6.969,4.937 0,2.026 -0.919,3.221 -3.183,4.109 -1.893,0.756 -2.115,0.921 -2.115,1.604 0,0.804 0.751,1.211 2.213,1.211 0.886,0 2.099,-0.083 3.251,-0.222 l 0.645,3.423 C 9.592,4.875 7.812,5.005 6.783,5.005 1.732,5.005 -0.015,2.732 0,0"
             style="fill:#ffffff;fill-opacity:1;fill-rule:nonzero;stroke:none"
             id="path3400"
             inkscape:connector-curvature="0" />
        </g>
        <g
           id="g3402"
           transform="translate(42.364,33.3405)">
          <path
             d="m 0,0 c -0.468,0.048 -0.673,0.061 -0.995,0.061 -2.524,0 -3.806,-0.75 -3.806,-2.235 0,-0.933 0.626,-1.516 1.599,-1.516 1.816,0 3.126,1.52 3.202,3.69 m 3.251,-6.588 -3.704,0 0.09,1.551 c -1.131,-1.222 -2.634,-1.792 -4.675,-1.792 -2.416,0 -4.072,1.652 -4.072,4.027 0,3.611 2.877,5.694 7.824,5.694 0.508,0 1.154,-0.039 1.82,-0.111 0.137,0.483 0.173,0.689 0.173,0.952 0,0.99 -0.777,1.354 -2.859,1.354 -2.052,-0.01 -3.437,-0.314 -4.721,-0.659 l 0.631,3.314 c 2.223,0.565 3.677,0.782 5.324,0.782 3.83,0 5.853,-1.501 5.853,-4.324 C 4.968,3.446 4.705,1.936 4.574,1.273 4.423,0.31 3.361,-5.271 3.251,-6.588"
             style="fill:#ffffff;fill-opacity:1;fill-rule:nonzero;stroke:none"
             id="path3404"
             inkscape:connector-curvature="0" />
        </g>
        <g
           id="g3406"
           transform="translate(80.88,26.9863)">
          <path
             d="m 0,0 c -1.215,-0.333 -2.162,-0.478 -3.186,-0.478 -2.269,0 -3.506,1.16 -3.506,3.225 -0.072,0.567 0.482,3.187 0.607,3.917 0.126,0.733 2.092,11.408 2.092,11.408 l 4.406,0 -0.666,-3.531 2.261,0 -0.614,-3.606 -2.271,0 c 0,0 -1.247,-6.257 -1.247,-6.733 0,-0.761 0.461,-1.089 1.515,-1.089 0.505,0 0.895,0.046 1.197,0.138 L 0,0 Z"
             style="fill:#ffffff;fill-opacity:1;fill-rule:nonzero;stroke:none"
             id="path3408"
             inkscape:connector-curvature="0" />
        </g>
        <g
           id="g3410"
           transform="translate(107.5579,35.3009)">
          <path
             d="m 0,0 c 0,3.687 -2.422,6.564 -6.984,6.564 -5.248,0 -8.642,-3.497 -8.642,-8.65 0,-3.688 2.002,-6.707 6.976,-6.707 C -3.633,-8.793 0,-6.112 0,0 m -4.758,0.094 c 0,-3.33 -1.365,-5.302 -3.523,-5.302 -1.572,-0.022 -2.525,1.295 -2.525,3.27 0,2.34 1.391,4.984 3.626,4.984 1.804,0 2.422,-1.431 2.422,-2.952"
             style="fill:#ffffff;fill-opacity:1;fill-rule:nonzero;stroke:none"
             id="path3412"
             inkscape:connector-curvature="0" />
        </g>
        <g
           id="g3414"
           transform="translate(84.8063,41.5287)">
          <path
             d="m 0,0 c -0.56,-4.57 -1.552,-9.202 -2.326,-13.782 l -0.187,-0.996 4.451,0 c 1.604,8.842 2.143,11.362 5.505,10.475 L 9.06,-0.119 C 6.714,0.741 5.205,-0.487 3.839,-2.234 3.963,-1.448 4.194,-0.689 4.139,0 L 0,0 Z"
             style="fill:#ffffff;fill-opacity:1;fill-rule:nonzero;stroke:none"
             id="path3416"
             inkscape:connector-curvature="0" />
        </g>
        <g
           id="g3418"
           transform="translate(31.18,26.7506)">
          <path
             d="M 0,0 -4.433,0 -1.798,13.882 -7.865,0 -11.906,0 -12.645,13.802 -15.288,0 l -4.022,0 3.425,18.058 6.929,0 0.366,-11.179 4.877,11.179 7.207,0 L 0,0 Z"
             style="fill:#ffffff;fill-opacity:1;fill-rule:nonzero;stroke:none"
             id="path3420"
             inkscape:connector-curvature="0" />
        </g>
      </g>
    </g>
  </g>
</svg>
