<?xml version="1.0" encoding="UTF-8" standalone="no"?>
<!-- Created with Inkscape (http://www.inkscape.org/) -->

<svg
   xmlns:dc="http://purl.org/dc/elements/1.1/"
   xmlns:cc="http://creativecommons.org/ns#"
   xmlns:rdf="http://www.w3.org/1999/02/22-rdf-syntax-ns#"
   xmlns:svg="http://www.w3.org/2000/svg"
   xmlns="http://www.w3.org/2000/svg"
   xmlns:sodipodi="http://sodipodi.sourceforge.net/DTD/sodipodi-0.dtd"
   xmlns:inkscape="http://www.inkscape.org/namespaces/inkscape"
   width="100"
   height="60"
   viewBox="0 0 99.999997 60"
   id="svg3765"
   version="1.1"
   inkscape:version="0.91 r13725"
   sodipodi:docname="icon-mastercard.svg">
  <defs
     id="defs3767">
    <clipPath
       clipPathUnits="userSpaceOnUse"
       id="clipPath3436">
      <path
         d="m 0,71.268 119.055,0 L 119.055,0 0,0 0,71.268 Z"
         id="path3438"
         inkscape:connector-curvature="0" />
    </clipPath>
    <clipPath
       clipPathUnits="userSpaceOnUse"
       id="clipPath3350">
      <path
         d="m 0,71.236 119.055,0 L 119.055,0 0,0 0,71.236 Z"
         id="path3352"
         inkscape:connector-curvature="0" />
    </clipPath>
    <clipPath
       clipPathUnits="userSpaceOnUse"
       id="clipPath3542">
      <path
         d="m 0,39.246 121.522,0 L 121.522,0 0,0 0,39.246 Z"
         id="path3544"
         inkscape:connector-curvature="0" />
    </clipPath>
  </defs>
  <sodipodi:namedview
     id="base"
     pagecolor="#ffffff"
     bordercolor="#666666"
     borderopacity="1.0"
     inkscape:pageopacity="0.0"
     inkscape:pageshadow="2"
     inkscape:zoom="3.959798"
     inkscape:cx="47.376646"
     inkscape:cy="6.6470187"
     inkscape:document-units="px"
     inkscape:current-layer="layer1"
     showgrid="false"
     units="px"
     inkscape:window-width="1366"
     inkscape:window-height="715"
     inkscape:window-x="-8"
     inkscape:window-y="-8"
     inkscape:window-maximized="1" />
  <metadata
     id="metadata3770">
    <rdf:RDF>
      <cc:Work
         rdf:about="">
        <dc:format>image/svg+xml</dc:format>
        <dc:type
           rdf:resource="http://purl.org/dc/dcmitype/StillImage" />
        <dc:title></dc:title>
      </cc:Work>
    </rdf:RDF>
  </metadata>
  <g
     inkscape:label="Layer 1"
     inkscape:groupmode="layer"
     id="layer1"
     transform="translate(0,-992.36219)">
    <g
       id="g3432"
       transform="matrix(0.6887573,0,0,-0.67351689,8.9999998,1046.3622)">
      <g
         id="g3434"
         clip-path="url(#clipPath3436)">
        <g
           id="g3440"
           transform="translate(59.5344,9.2207)">
          <path
             d="m 0,0 c 6.285,-5.727 14.738,-9.221 23.892,-9.221 19.706,0 35.629,15.928 35.629,35.632 0,19.636 -15.923,35.636 -35.629,35.636 C 14.738,62.047 6.285,58.551 0,52.821 -7.194,46.257 -11.742,36.887 -11.742,26.411 -11.742,15.933 -7.194,6.498 0,0"
             style="fill:#fab52e;fill-opacity:1;fill-rule:evenodd;stroke:none"
             id="path3442"
             inkscape:connector-curvature="0" />
        </g>
        <g
           id="g3444"
           transform="translate(115.283,15.8564)">
          <path
             d="M 0,0 0.143,0 0.281,0 0.351,0.138 0.281,0.21 0.143,0.21 0,0.21 0,0 Z m 0,-0.629 -0.207,0 0,1.049 0.414,0 0.292,-0.072 0.133,-0.21 -0.207,-0.276 0.207,-0.491 -0.281,0 -0.144,0.422 -0.207,0 0,-0.422 z m 0.207,-0.34 c 0.425,0 0.845,0.411 0.845,0.911 0,0.478 -0.42,0.831 -0.845,0.831 -0.483,0 -0.908,-0.353 -0.908,-0.831 0,-0.5 0.425,-0.911 0.908,-0.911 m -1.185,0.911 c 0,0.621 0.489,1.107 1.185,1.107 0.632,0 1.121,-0.486 1.121,-1.107 0,-0.635 -0.489,-1.193 -1.121,-1.193 -0.696,0 -1.185,0.558 -1.185,1.193"
             style="fill:#fab52e;fill-opacity:1;fill-rule:evenodd;stroke:none"
             id="path3446"
             inkscape:connector-curvature="0" />
        </g>
        <g
           id="g3448"
           transform="translate(71.058,39.4035)">
          <path
             d="m 0,0 c -0.143,1.262 -0.351,2.516 -0.622,3.775 l -21.799,0 c 0.271,1.254 0.627,2.518 1.047,3.775 l 19.701,0 c -0.42,1.259 -0.909,2.51 -1.467,3.766 l -16.768,0 c 0.627,1.257 1.323,2.519 2.099,3.775 l 12.57,0 c -0.77,1.323 -1.678,2.588 -2.725,3.775 l -7.125,0 c 1.041,1.323 2.301,2.58 3.565,3.772 -6.285,5.73 -14.669,9.226 -23.897,9.226 -19.709,0 -35.637,-16 -35.637,-35.636 0,-19.703 15.928,-35.632 35.637,-35.632 9.228,0 17.612,3.494 23.897,9.221 1.254,1.19 2.508,2.441 3.634,3.778 l -7.199,0 c -0.978,1.187 -1.886,2.438 -2.72,3.769 l 12.57,0 c 0.771,1.185 1.467,2.444 2.099,3.767 l -16.768,0 c -0.552,1.193 -1.052,2.444 -1.466,3.783 l 19.701,0 c 0.419,1.256 0.764,2.508 1.051,3.772 0.271,1.254 0.479,2.51 0.622,3.767 0.149,1.259 0.207,2.51 0.207,3.775 C 0.207,-2.513 0.149,-1.256 0,0"
             style="fill:#e3202e;fill-opacity:1;fill-rule:evenodd;stroke:none"
             id="path3450"
             inkscape:connector-curvature="0" />
        </g>
        <g
           id="g3452"
           transform="translate(115.283,27.4547)">
          <path
             d="M 0,0 0.143,0 0.281,0 0.351,0.143 0.281,0.21 0.143,0.21 0,0.21 0,0 Z m 0,-0.629 -0.207,0 0,1.054 0.414,0 0.292,-0.072 0.133,-0.21 -0.207,-0.281 0.207,-0.491 -0.281,0 -0.144,0.424 -0.207,0 0,-0.424 z m 0.207,-0.349 c 0.425,0 0.845,0.42 0.845,0.912 0,0.491 -0.42,0.839 -0.845,0.839 -0.483,0 -0.908,-0.348 -0.908,-0.839 0,-0.492 0.425,-0.912 0.908,-0.912 m -1.185,0.912 c 0,0.629 0.489,1.115 1.185,1.115 0.632,0 1.121,-0.486 1.121,-1.115 0,-0.635 -0.489,-1.193 -1.121,-1.193 -0.696,0 -1.185,0.558 -1.185,1.193"
             style="fill:#ffffff;fill-opacity:1;fill-rule:evenodd;stroke:none"
             id="path3454"
             inkscape:connector-curvature="0" />
        </g>
        <g
           id="g3456"
           transform="translate(47.4472,25.356)">
          <path
             d="m 0,0 c -1.19,-0.345 -2.029,-0.483 -2.933,-0.483 -1.817,0 -2.938,1.121 -2.938,3.217 0,0.414 0.069,0.831 0.144,1.331 l 0.207,1.389 0.207,1.187 1.679,10.06 3.698,0 -0.415,-2.234 2.306,0 -0.558,-3.7 -2.311,0 -1.046,-6.014 c 0,-0.205 -0.069,-0.412 -0.069,-0.558 0,-0.765 0.419,-1.108 1.328,-1.108 0.489,0 0.765,0.061 1.184,0.138 L 0,0 Z"
             style="fill:#2d3f6b;fill-opacity:1;fill-rule:evenodd;stroke:none"
             id="path3458"
             inkscape:connector-curvature="0" />
        </g>
        <g
           id="g3460"
           transform="translate(57.0902,34.2286)">
          <path
             d="M 0,0 0,0.707 C 0,1.894 -0.701,2.59 -1.817,2.59 -3.081,2.59 -3.916,1.69 -4.266,0 L 0,0 Z m 2.306,-8.726 c -1.333,-0.428 -2.662,-0.63 -3.985,-0.63 -4.128,0 -6.567,2.234 -6.567,6.567 0,5.031 2.864,8.803 6.78,8.803 3.14,0 5.164,-2.096 5.164,-5.379 0,-1.047 -0.138,-2.096 -0.489,-3.642 l -7.682,0 0,-0.412 c 0,-1.751 1.11,-2.582 3.352,-2.582 1.403,0 2.651,0.276 4.054,0.903 L 2.306,-8.726 Z"
             style="fill:#2d3f6b;fill-opacity:1;fill-rule:evenodd;stroke:none"
             id="path3462"
             inkscape:connector-curvature="0" />
        </g>
        <g
           id="g3464"
           transform="translate(17.8942,25.1542)">
          <path
             d="M 0,0 -3.847,0 -1.61,13.904 -6.572,0 -9.224,0 -9.505,13.832 -11.88,0 l -3.698,0 2.997,18.096 5.52,0 0.218,-11.181 3.698,11.181 6.149,0 L 0,0 Z"
             style="fill:#2d3f6b;fill-opacity:1;fill-rule:evenodd;stroke:none"
             id="path3466"
             inkscape:connector-curvature="0" />
        </g>
        <g
           id="g3468"
           transform="translate(30.2601,25.1542)">
          <path
             d="m 0,0 -3.353,0 0.064,1.536 c -0.834,-1.188 -1.955,-1.818 -4.043,-1.818 -1.892,0 -3.429,1.677 -3.429,4.049 0,0.706 0.138,1.325 0.281,1.889 0.624,2.306 2.93,3.705 6.426,3.772 0.42,0 1.121,0 1.679,-0.067 0.133,0.481 0.133,0.696 0.133,0.978 0,0.978 -0.765,1.254 -2.582,1.254 -1.116,0 -2.306,-0.205 -3.215,-0.414 l -0.483,-0.21 -0.287,0 0.563,3.28 c 1.817,0.558 3.082,0.768 4.473,0.768 3.353,0 5.101,-1.461 5.101,-4.33 0,-0.696 0.069,-1.259 -0.212,-2.864 L 0.351,2.582 0.207,1.671 0.064,0.906 0.064,0.42 0,0 Z m -3.071,6.567 c -0.425,0 -0.494,0.064 -0.771,0.064 -2.162,0 -3.288,-0.84 -3.288,-2.235 0,-0.969 0.558,-1.533 1.403,-1.533 1.885,0 2.582,1.533 2.656,3.704"
             style="fill:#2d3f6b;fill-opacity:1;fill-rule:evenodd;stroke:none"
             id="path3470"
             inkscape:connector-curvature="0" />
        </g>
        <g
           id="g3472"
           transform="translate(77.9755,39.6878)">
          <path
             d="M 0,0 C 1.046,0 2.03,-0.284 3.422,-0.978 L 4.048,3.007 C 3.708,3.137 3.634,3.137 3.14,3.355 L 1.535,3.7 c -0.489,0.138 -1.046,0.21 -1.742,0.21 -1.886,0 -3.007,0 -4.192,-0.773 C -5.026,2.789 -5.797,2.231 -6.71,1.251 l -0.415,0.144 -3.979,-2.79 0.207,1.53 -4.117,0 -2.312,-14.669 3.842,0 1.397,7.89 c 0,0 0.563,1.118 0.839,1.472 0.702,0.9 1.329,0.9 2.099,0.9 l 0.276,0 c -0.063,-0.834 -0.138,-1.812 -0.138,-2.792 0,-4.816 2.726,-7.823 6.918,-7.823 1.046,0 1.955,0.138 3.352,0.555 l 0.702,4.123 c -1.26,-0.622 -2.312,-0.898 -3.284,-0.898 -2.237,0 -3.57,1.6 -3.57,4.397 0,3.913 1.96,6.71 4.893,6.71"
             style="fill:#2d3f6b;fill-opacity:1;fill-rule:evenodd;stroke:none"
             id="path3474"
             inkscape:connector-curvature="0" />
        </g>
        <g
           id="g3476"
           transform="translate(105.9215,28.6475)">
          <path
             d="m 0,0 c -1.328,0 -1.95,0.903 -1.95,2.864 0,2.855 1.18,4.959 2.997,4.959 1.333,0 2.034,-1.054 2.034,-2.935 C 3.081,2.024 1.817,0 0,0 M 4.681,14.603 3.847,9.428 c -0.909,1.402 -2.03,2.032 -3.496,2.032 -2.024,0 -3.911,-1.121 -5.106,-3.289 l -2.439,1.475 0.207,1.53 -4.117,0 -2.38,-14.669 3.915,0 1.254,7.889 c 0,0 0.978,1.119 1.26,1.472 0.557,0.696 1.19,0.901 1.678,0.901 -0.42,-1.254 -0.706,-2.713 -0.706,-4.325 0,-3.703 1.96,-6.152 4.755,-6.152 1.402,0 2.513,0.496 3.57,1.678 l -0.218,-1.463 3.703,0 2.933,18.096 -3.979,0 z"
             style="fill:#2d3f6b;fill-opacity:1;fill-rule:evenodd;stroke:none"
             id="path3478"
             inkscape:connector-curvature="0" />
        </g>
        <g
           id="g3480"
           transform="translate(91.1833,25.1542)">
          <path
             d="m 0,0 -3.352,0 0.069,1.536 c -0.84,-1.188 -1.961,-1.818 -4.054,-1.818 -1.891,0 -3.565,1.605 -3.565,4.049 0.069,3.493 2.667,5.661 6.848,5.661 0.42,0 1.116,0 1.679,-0.067 0.139,0.481 0.139,0.696 0.139,0.978 0,0.978 -0.771,1.254 -2.588,1.254 -1.116,0 -2.375,-0.205 -3.209,-0.414 l -0.563,-0.21 -0.213,0 0.574,3.28 c 1.801,0.558 3.06,0.768 4.458,0.768 3.357,0 5.1,-1.461 5.1,-4.33 0,-0.696 0.074,-1.259 -0.207,-2.864 L 0.346,2.582 0.207,1.671 0.069,0.906 0,0.42 0,0 Z m -3.076,6.567 c -0.42,0 -0.484,0.064 -0.77,0.064 -2.163,0 -3.278,-0.84 -3.278,-2.235 0,-0.969 0.552,-1.533 1.397,-1.533 1.881,0 2.582,1.533 2.651,3.704"
             style="fill:#2d3f6b;fill-opacity:1;fill-rule:evenodd;stroke:none"
             id="path3482"
             inkscape:connector-curvature="0" />
        </g>
        <g
           id="g3484"
           transform="translate(38.2932,36.6779)">
          <path
             d="M 0,0 C 0.77,0 1.822,-0.069 2.933,-0.207 L 3.501,3.212 C 2.375,3.358 0.914,3.493 0,3.493 c -4.261,0 -5.733,-2.3 -5.733,-5.026 0,-1.742 0.84,-3.076 2.875,-3.982 1.599,-0.767 1.88,-0.916 1.88,-1.535 0,-0.911 -0.839,-1.472 -2.38,-1.472 -1.11,0 -2.157,0.207 -3.422,0.561 l -0.419,-3.361 0.074,0 0.696,-0.135 c 0.213,-0.067 0.558,-0.146 0.983,-0.146 0.978,-0.136 1.748,-0.136 2.231,-0.136 4.267,0 6.084,1.61 6.084,4.893 0,2.025 -0.978,3.212 -2.944,4.057 -1.609,0.765 -1.811,0.834 -1.811,1.527 C -1.886,-0.555 -1.19,0 0,0"
             style="fill:#2d3f6b;fill-opacity:1;fill-rule:evenodd;stroke:none"
             id="path3486"
             inkscape:connector-curvature="0" />
        </g>
        <g
           id="g3488"
           transform="translate(83.076,43.8078)">
          <path
             d="m 0,0 -0.632,-3.918 c -1.392,0.701 -2.37,0.983 -3.422,0.983 -2.938,0 -4.962,-2.798 -4.962,-6.78 0,-2.722 1.397,-4.396 3.639,-4.396 0.978,0 2.03,0.274 3.284,0.903 l -0.702,-4.123 c -1.392,-0.345 -2.305,-0.483 -3.421,-0.483 -4.123,0 -6.71,2.927 -6.71,7.749 0,6.5 3.565,10.968 8.66,10.968 0.701,0 1.264,-0.063 1.748,-0.13 L -0.914,0.348 C -0.42,0.136 -0.346,0.136 0,0"
             style="fill:#ffffff;fill-opacity:1;fill-rule:evenodd;stroke:none"
             id="path3490"
             inkscape:connector-curvature="0" />
        </g>
        <g
           id="g3492"
           transform="translate(70.7075,41.0824)">
          <path
             d="m 0,0 -0.42,0.066 c -1.248,0 -1.955,-0.629 -3.145,-2.372 l 0.361,2.232 -3.575,0 -2.301,-14.741 3.841,0 c 1.403,9.018 1.754,10.551 3.634,10.551 l 0.282,0 C -0.978,-2.521 -0.558,-1.193 0.143,0 L 0,0 Z"
             style="fill:#ffffff;fill-opacity:1;fill-rule:evenodd;stroke:none"
             id="path3494"
             inkscape:connector-curvature="0" />
        </g>
        <g
           id="g3496"
           transform="translate(48.4249,26.4769)">
          <path
             d="m 0,0 c -1.052,-0.345 -1.891,-0.483 -2.8,-0.483 -1.955,0 -3.066,1.113 -3.066,3.209 0,0.425 0.064,0.839 0.139,1.33 l 0.207,1.464 0.207,1.119 1.679,10.062 3.846,0 -0.424,-2.17 1.96,0 -0.563,-3.626 -1.955,0 -1.047,-6.081 c 0,-0.287 -0.074,-0.491 -0.074,-0.629 0,-0.768 0.425,-1.121 1.333,-1.121 0.489,0 0.77,0.077 1.041,0.146 L 0,0 Z"
             style="fill:#ffffff;fill-opacity:1;fill-rule:evenodd;stroke:none"
             id="path3498"
             inkscape:connector-curvature="0" />
        </g>
        <g
           id="g3500"
           transform="translate(33.5434,36.3327)">
          <path
             d="m 0,0 c 0,-1.817 0.909,-3.151 2.933,-4.054 1.61,-0.768 1.817,-0.977 1.817,-1.679 0,-0.903 -0.696,-1.328 -2.242,-1.328 -1.116,0 -2.157,0.207 -3.417,0.632 l -0.557,-3.427 0.207,0 0.701,-0.143 c 0.207,-0.066 0.558,-0.138 0.978,-0.138 0.908,-0.064 1.673,-0.136 2.168,-0.136 4.053,0 5.934,1.538 5.934,4.885 0,2.033 -0.765,3.217 -2.72,4.132 -1.61,0.693 -1.817,0.903 -1.817,1.532 0,0.837 0.627,1.262 1.886,1.262 0.77,0 1.811,-0.143 2.789,-0.282 L 9.218,4.675 C 8.251,4.816 6.71,4.957 5.802,4.957 1.466,4.957 0,2.725 0,0"
             style="fill:#ffffff;fill-opacity:1;fill-rule:evenodd;stroke:none"
             id="path3502"
             inkscape:connector-curvature="0" />
        </g>
        <g
           id="g3504"
           transform="translate(106.8992,29.7606)">
          <path
             d="m 0,0 c 1.817,0 3.076,2.024 3.076,4.962 0,1.82 -0.696,2.867 -2.03,2.867 -1.742,0 -3.001,-2.03 -3.001,-4.965 C -1.955,0.975 -1.323,0 0,0 m 5.727,-3.493 -3.708,0 0.217,1.469 c -1.051,-1.119 -2.167,-1.605 -3.559,-1.605 -2.795,0 -4.681,2.372 -4.681,6.078 0,4.891 2.869,9.013 6.291,9.013 1.53,0 2.656,-0.632 3.692,-2.026 l 0.845,5.169 3.841,0 -2.938,-18.098 z"
             style="fill:#ffffff;fill-opacity:1;fill-rule:evenodd;stroke:none"
             id="path3506"
             inkscape:connector-curvature="0" />
        </g>
        <g
           id="g3508"
           transform="translate(58.0627,35.3577)">
          <path
             d="M 0,0 0,0.765 C 0,1.95 -0.627,2.654 -1.817,2.654 -3.002,2.654 -3.91,1.671 -4.261,0 L 0,0 Z m 2.162,-8.74 c -1.323,-0.422 -2.577,-0.624 -3.979,-0.624 -4.33,0 -6.562,2.298 -6.562,6.564 0,5.103 2.859,8.801 6.769,8.801 3.151,0 5.175,-2.093 5.175,-5.379 0,-1.044 -0.138,-2.091 -0.425,-3.629 l -7.683,0 c -0.069,-0.213 -0.069,-0.282 -0.069,-0.415 0,-1.689 1.127,-2.592 3.427,-2.592 1.328,0 2.588,0.284 3.99,0.903 L 2.162,-8.74 Z"
             style="fill:#ffffff;fill-opacity:1;fill-rule:evenodd;stroke:none"
             id="path3510"
             inkscape:connector-curvature="0" />
        </g>
        <g
           id="g3512"
           transform="translate(18.8663,26.2673)">
          <path
             d="M 0,0 -3.831,0 -1.605,13.904 -6.567,0 -9.218,0 -9.499,13.84 -11.875,0 l -3.559,0 3.002,18.098 5.52,0 0.207,-11.183 3.703,11.183 6.012,0 L 0,0 Z"
             style="fill:#ffffff;fill-opacity:1;fill-rule:evenodd;stroke:none"
             id="path3514"
             inkscape:connector-curvature="0" />
        </g>
        <g
           id="g3516"
           transform="translate(31.2375,26.2673)">
          <path
             d="m 0,0 -3.22,0 0.075,1.541 c -0.978,-1.19 -2.237,-1.748 -4.049,-1.748 -2.098,0 -3.496,1.604 -3.496,3.982 0,3.562 2.444,5.661 6.78,5.661 0.414,0 0.977,0 1.535,-0.072 0.138,0.42 0.138,0.627 0.138,0.911 0,0.975 -0.632,1.328 -2.444,1.328 -1.121,0 -2.38,-0.143 -3.214,-0.425 l -0.558,-0.138 -0.351,-0.071 0.558,3.283 c 1.956,0.563 3.215,0.77 4.612,0.77 3.353,0 5.1,-1.466 5.1,-4.261 0,-0.77 -0.069,-1.325 -0.35,-2.935 L 0.351,2.59 0.213,1.687 0.138,0.911 0.069,0.422 0,0 Z m -2.795,6.572 c -0.425,0.066 -0.632,0.066 -0.913,0.066 -2.157,0 -3.273,-0.767 -3.273,-2.234 0,-0.911 0.558,-1.541 1.392,-1.541 1.604,0 2.72,1.541 2.794,3.709"
             style="fill:#ffffff;fill-opacity:1;fill-rule:evenodd;stroke:none"
             id="path3518"
             inkscape:connector-curvature="0" />
        </g>
        <g
           id="g3520"
           transform="translate(92.161,26.2673)">
          <path
             d="m 0,0 -3.214,0 0.069,1.541 c -0.978,-1.19 -2.311,-1.748 -4.054,-1.748 -2.093,0 -3.565,1.604 -3.565,3.982 0,3.562 2.519,5.661 6.848,5.661 0.426,0 0.983,0 1.536,-0.072 0.143,0.42 0.143,0.627 0.143,0.911 0,0.975 -0.632,1.328 -2.444,1.328 -1.121,0 -2.374,-0.143 -3.214,-0.425 l -0.558,-0.138 -0.351,-0.071 0.559,3.283 c 1.955,0.563 3.214,0.77 4.606,0.77 3.352,0 5.1,-1.466 5.1,-4.261 0,-0.77 -0.069,-1.325 -0.351,-2.935 L 0.346,2.59 0.207,1.687 0.069,0.911 0,0.422 0,0 Z m -2.8,6.572 c -0.414,0.066 -0.627,0.066 -0.903,0.066 -2.162,0 -3.283,-0.767 -3.283,-2.234 0,-0.911 0.557,-1.541 1.397,-1.541 1.535,0 2.72,1.541 2.789,3.709"
             style="fill:#ffffff;fill-opacity:1;fill-rule:evenodd;stroke:none"
             id="path3522"
             inkscape:connector-curvature="0" />
        </g>
        <g
           id="g3524"
           transform="translate(102.5051,41.0824)">
          <path
             d="m 0,0 -0.356,0.066 c -1.254,0 -2.024,-0.629 -3.214,-2.372 l 0.351,2.232 -3.491,0 -2.386,-14.741 3.921,0 c 1.323,9.018 1.748,10.551 3.565,10.551 l 0.271,0 C -0.977,-2.521 -0.494,-1.193 0.133,0 L 0,0 Z"
             style="fill:#ffffff;fill-opacity:1;fill-rule:evenodd;stroke:none"
             id="path3526"
             inkscape:connector-curvature="0" />
        </g>
      </g>
    </g>
  </g>
</svg>
