<?xml version="1.0" encoding="UTF-8" standalone="no"?>
<!-- Created with Inkscape (http://www.inkscape.org/) -->

<svg
   xmlns:dc="http://purl.org/dc/elements/1.1/"
   xmlns:cc="http://creativecommons.org/ns#"
   xmlns:rdf="http://www.w3.org/1999/02/22-rdf-syntax-ns#"
   xmlns:svg="http://www.w3.org/2000/svg"
   xmlns="http://www.w3.org/2000/svg"
   xmlns:sodipodi="http://sodipodi.sourceforge.net/DTD/sodipodi-0.dtd"
   xmlns:inkscape="http://www.inkscape.org/namespaces/inkscape"
   id="svg4207"
   version="1.1"
   inkscape:version="0.91 r13725"
   xml:space="preserve"
   width="232"
   height="94"
   viewBox="0 0 232.00001 94"
   sodipodi:docname="icon-planer-white.svg"><metadata
     id="metadata4213"><rdf:RDF><cc:Work
         rdf:about=""><dc:format>image/svg+xml</dc:format><dc:type
           rdf:resource="http://purl.org/dc/dcmitype/StillImage" /><dc:title></dc:title></cc:Work></rdf:RDF></metadata><defs
     id="defs4211"><clipPath
       clipPathUnits="userSpaceOnUse"
       id="clipPath4221"><path
         d="m 0,58.563 151.084,0 L 151.084,0 0,0 0,58.563 Z"
         id="path4223"
         inkscape:connector-curvature="0" /></clipPath><clipPath
       clipPathUnits="userSpaceOnUse"
       id="clipPath4265"><path
         d="m 0,58.563 151.084,0 L 151.084,0 0,0 0,58.563 Z"
         id="path4267"
         inkscape:connector-curvature="0" /></clipPath><pattern
       y="0"
       x="0"
       height="6"
       width="6"
       patternUnits="userSpaceOnUse"
       id="EMFhbasepattern" /></defs><sodipodi:namedview
     pagecolor="#ffffff"
     bordercolor="#666666"
     borderopacity="1"
     objecttolerance="10"
     gridtolerance="10"
     guidetolerance="10"
     inkscape:pageopacity="0"
     inkscape:pageshadow="2"
     inkscape:window-width="1366"
     inkscape:window-height="687"
     id="namedview4209"
     showgrid="false"
     inkscape:snap-others="false"
     fit-margin-top="0"
     fit-margin-left="0"
     fit-margin-right="0"
     fit-margin-bottom="0"
     inkscape:zoom="0.88017552"
     inkscape:cx="-52.890257"
     inkscape:cy="42.821465"
     inkscape:window-x="-8"
     inkscape:window-y="-8"
     inkscape:window-maximized="1"
     inkscape:current-layer="g4215" /><g
     id="g4215"
     inkscape:groupmode="layer"
     inkscape:label="Векторный смарт-объект2"
     transform="matrix(1.25,0,0,-1.25,56.261229,-84.120568)"><g
       transform="matrix(0.96802734,0.29393909,-0.29079045,0.97850904,-30.986185,-163.63944)"
       id="g4964"
       style="fill:#ffffff"><path
         style="fill:#ffffff;fill-opacity:1;fill-rule:evenodd;stroke:none"
         d="M 85.52371,71.220084 93.294126,50.688386 175.39473,20.546284 Z M 54.290947,34.515535 35.685121,37.537754 c -0.31848,0.07711 -0.526102,0.364219 -0.484259,0.681745 0.04182,0.31763 0.365868,0.523401 0.685052,0.481779 l 18.570305,-3.021511 c 0.319181,-0.04167 0.526089,-0.364217 0.484246,-0.681745 -0.04182,-0.317631 -0.365919,-0.523404 -0.649518,-0.482487 z M 57.407454,12.378048 13.105787,17.6785 c -0.319089,0.04166 -0.526793,0.328814 -0.484951,0.646363 0.04188,0.31754 0.330438,0.524107 0.649516,0.482385 l 44.266136,-5.299751 c 0.319881,-0.0064 0.563038,-0.294157 0.521195,-0.611682 -0.04182,-0.317629 -0.331061,-0.55949 -0.650229,-0.517767 z m 9.966319,9.531345 -71.7394778,9.382073 c -0.3191779,0.04167 -0.5623306,0.329605 -0.5204812,0.647164 0.041179,0.28218 0.3303938,0.524112 0.6495345,0.482384 L 67.502795,23.038845 c 0.319131,-0.04166 0.562337,-0.329516 0.520493,-0.647067 -0.04182,-0.31754 -0.330397,-0.524106 -0.649515,-0.482385 z m 114.670237,-4.926541 -72.26453,-17.10546418 0,0 -0.0355,7.0379e-4 0,0 0,0 0,0 0,0 -0.0355,7.0368e-4 -6.9e-4,-0.0353234 0,0 0,0 0,0 -0.0355,7.0368e-4 0,0 0,0 0,0 0,0 -0.0355,7.0379e-4 0,0 0,0 0,0 0,0 -0.0355,7.0368e-4 0,0 0,0 0,0 0,0 -0.0355,7.0379e-4 0,0 0,0 0,0 0,0 -0.0355,7.0368e-4 0,0 0,0 0,0 0,0 -0.0355,7.0379e-4 6.9e-4,0.0353234 0,0 0,0 0,0 -0.0355,7.0368e-4 0,0 -0.0355,7.0379e-4 0,0 0,0 0,0 0,0 0,0 -0.0355,7.0368e-4 0,0 7.1e-4,0.03532242 0,0 0,0 -0.0355,7.0369e-4 0,0 0,0 0,0 0,0 0,0 -0.0355,7.0378e-4 0,0 0,0 7e-4,0.03532343 0,0 0,0 -0.0355,7.0368e-4 0,0 0,0 0,0 0,0 0,0 -0.0348,0.03602751 0,0 0,0 0,0 0,0 0,0 0,0 -0.0355,7.0369e-4 7e-4,0.03532342 0,0 0,0 0,0 0,0 0,0 -0.0355,7.0369e-4 7e-4,0.03532241 0,0 0,0 0,0 0,0 0,0 0,0 -0.0348,0.03602752 0,0 0,0 0,0 0,0 0,0 6.9e-4,0.0353234 0,0 -0.0355,7.0379e-4 0,0 0,0 0,0 6.9e-4,0.0353224 0,0 0,0 0,0 0,0 7e-4,0.0353234 0,0 -0.0355,7.0368e-4 0,0 0,0 0,0 7.1e-4,0.0353234 0,0 0,0 0,0 0,0 -4.77432,15.62558284 -21.910882,1.318776 0,0 0,0 -0.03551,7.04e-4 0,0 0,0 0,0 0,0 0,0 0,0 0,0 -0.03551,7.04e-4 0,0 0,0 0,0 -0.03551,7.04e-4 0,0 0,0 0,0 0,0 0,0 0,0 0,0 0,0 0,0 -0.03551,7.04e-4 0,0 0,0 7e-4,0.03533 0,0 0,0 0,0 0,0 0,0 0,0 0,0 0,0 0,0 0,0 -0.03551,7.04e-4 0,0 0,0 0,0 0,0 0,0 0,0 0,0 0,0 0,0 0,0 0,0 0,0 0,0 0,0 -0.03551,7.04e-4 0,0 0,0 0,0 0,0 0,0 0,0 0,0 7e-4,0.03532 0,0 -0.03551,7.04e-4 0,0 0,0 0,0 0,0 0,0 0,0 0,0 0,0 0,0 0,0 -0.03551,7.03e-4 0,0 0,0 0,0 0,0 0,0 0,0 7e-4,0.03532 0,0 0,0 0,0 0,0 -0.03551,7.03e-4 0,0 0,0 0,0 0,0 0,0 0,0 0,0 0,0 0,0 7e-4,0.03532 0,0 0,0 c -0.03551,7.03e-4 -0.07044,0.03674 -0.105249,0.07288 l 0,0 0,0 7e-4,0.03532 0,0 0,0 0,0 -0.03551,7.04e-4 0,0 0,0 7e-4,0.03533 0,0 0,0 0,0 0,0 0,0 0,0 0,0 0,0 0,0 0,0 7e-4,0.03532 0,0 0,0 -0.03551,7.05e-4 0,0 0,0 0,0 0,0 0,0 0,0 7e-4,0.03532 0,0 0,0 0,0 0,0 0,0 0,0 0,0 7e-4,0.03532 0,0 0,0 -0.03551,7.04e-4 7e-4,0.03533 c 0,0 7e-4,0.03532 0.0014,0.07077 l 0,0 0,0 7e-4,0.03532 0,0 0,0 0,0 0,0 0,0 0,0 7e-4,0.03532 0,0 0,0 0,0 7e-4,0.03533 0,0 0,0 0,0 7.01e-4,0.03532 0,0 0,0 0,0 0,0 0,0 0,0 7e-4,0.03532 0,0 0,0 0,0 0,0 7e-4,0.03531 0,0 0,0 0,0 0,0 7e-4,0.03533 0,0 0.03551,-7.04e-4 0,0 10.345891,32.271779 -8.379248,22.100358 c -0.0341,0.07147 -0.0327,0.142145 -0.0313,0.212866 0.0021,0.106155 0.0035,0.176801 0.07605,0.246149 0.03691,0.07007 0.07395,0.140044 0.146478,0.209342 0.03551,-7.04e-4 0.107351,0.03315 0.143664,0.06795 0.07184,0.03398 0.142975,0.03257 0.214106,0.03116 0.106652,-0.0021 0.17713,-0.03892 0.28313,-0.07641 l 97.467569,-54.928474 0,0 0,0 -7e-4,-0.03532 0,0 0,0 0,0 0,0 0,0 0.0355,-7.04e-4 0,0 0,0 0,0 0,0 0,0 0,0 0,0 0,0 0,0 0.0355,-7.03e-4 -7.1e-4,-0.03532 0,0 0,0 0,0 0,0 0,0 0,0 0,0 0,0 0,0 0.0355,-7.04e-4 0,0 0,0 0,0 0,0 -7.1e-4,-0.03533 0,0 0,0 0,0 0,0 0,0 0,0 0,0 0.0355,-7.04e-4 0,0 0,0 0,0 0,0 -7e-4,-0.03532 0,0 0,0 0,0 0,0 0,0 0.0355,-7.03e-4 0,0 0,0 0,0 -7e-4,-0.03532 0,0 0,0 0,0 0,0 0,0 0,0 0.0355,-7.03e-4 0,0 -7e-4,-0.03533 M 110.01714,1.1096444 179.46011,17.563499 98.799748,37.841943 Z m 72.36424,16.7143216 0.0355,-7.03e-4 0,0 0,0 0,0 c -7e-4,-0.03532 -7e-4,-0.03532 0.0341,-0.07139 l 0,0 0,0 m -10e-4,-0.07077 0,0 0,0 0,0 -7.1e-4,-0.03532 0,0 0,0 0,0 0,0 0.0348,-0.03602 0,0 0,0 0,0 0,0 0,0 0,0 -7e-4,-0.03533 0,0 0,0 0,0 c -7e-4,-0.03532 -7e-4,-0.03532 -0.001,-0.07077 l 0,0 0,0 0,0 0,0 0,0 0,0 -7.1e-4,-0.03531 0,0 0,0 0,0 0,0 0,0 0,0 0,0 0,0 0,0 -7e-4,-0.03533 -0.0355,7.04e-4 0,0 0,0 0,0 0,0 0,0 0,0 0,0 -7e-4,-0.03532 0,0 0,0 0,0 0,0 0,0 0,0 0,0 0,0 0,0 0,0 0,0 0,0 -6.9e-4,-0.03531 0,0 0,0 0,0 0,0 0,0 0,0 0,0 0,0 -7.1e-4,-0.03532 0,0 0,0 0,0 0,0 0,0 -0.0355,7.03e-4 0,0 0,0 -6.9e-4,-0.03532 0,0 0,0 0,0 0,0 0,0 0,0 0,0 0,0 -7.1e-4,-0.03533 0,0 0,0 0,0 0,0 0,0 -0.0355,7.04e-4 0,0 0,0 -7e-4,-0.03532 0,0 0,0 0,0 0,0 0,0 0,0 0,0 0,0 0,0 0,0 -7e-4,-0.03532 0,0 -0.0355,7.04e-4 0,0 0,0 0,0 0,0 0,0 0,0 0,0 0,0 0,0 -7e-4,-0.03532 0,0 0,0 0,0 0,0 -0.0355,7.04e-4 0,0 0,0 0,0 0,0 0,0 0,0 -7e-4,-0.03533 0,0 0,0 0,0 0,0 -0.0355,7.04e-4 0,0 0,0 0,0 0,0 -7e-4,-0.03531 0,0 0,0 0,0 0,0 -0.0355,7.04e-4 0,0 0,0 0,0 0,0 m -0.0362,-0.03462 -0.0355,7.04e-4 0,0 0,0 0,0 c -0.0362,-0.03463 -0.0362,-0.03463 -0.0718,-0.03392 l 0,0 0,0 m -0.0363,-0.03461 0,0 m -98.494663,1.280481 20.383573,-1.217806 -6.208867,20.359238 z m 14.13849,20.911009 c 0.03551,-7.04e-4 0.07184,0.0339 0.106981,0.03321 l 0,0 0,0 0,0 0.03551,-7.04e-4 0,0 0,0 0,0 0.03621,0.03461 0,0 0.07115,-0.0014 c 0,0 0.03551,-7.03e-4 0.07028,-0.0014 l 0,0 0,0 0,0 0.03551,-7.03e-4 0,0 0,0 0,0 0,0 0,0 0,0 0.03481,-0.03602 0,0 0,0 73.373482,-18.435834 -78.217969,28.720735 -9.170637,-28.580464 13.406639,18.095344 0,0 0,0 0,0 0.03551,-7.04e-4 0,0 0,0 0,0 0,0 7e-4,0.03531 0,0 0,0 0,0 0,0 0,0 0,0 0,0 0,0 0,0 0,0 0,0 0.03551,-7.03e-4 0,0 7e-4,0.03532 0,0 0,0 0,0 0,0 0,0 0,0 0,0 0,0 0,0 0,0 0,0 0.03551,-7.05e-4 0,0 7.01e-4,0.03532 0,0 0,0 0,0 0,0 0,0 0,0 0,0 0,0 0,0 0,0 0,0 0.03551,-7.04e-4 0,0 7e-4,0.03533 0,0 0,0 0.03551,-7.04e-4 0,0 0,0 0,0 0,0 0,0 0,0 0,0 0,0 7e-4,0.03532 0,0 0,0 0.03551,-7.04e-4 0,0 0,0 0,0 0,0 0,0 z m 84.499853,-22.123418 0,0 m -0.1441,-0.06794 0,0 0,0 0,0 0,0 0,0 m 0.33691,0.842357 0,0 m 0.0682,-0.107425 0,0 0,0 0,0 -7.1e-4,-0.03533 0,0"
         id="path4925"
         inkscape:connector-curvature="0" /></g></g></svg>