<?xml version="1.0" encoding="UTF-8" standalone="no"?>
<!-- Created with Inkscape (http://www.inkscape.org/) -->

<svg
   xmlns:dc="http://purl.org/dc/elements/1.1/"
   xmlns:cc="http://creativecommons.org/ns#"
   xmlns:rdf="http://www.w3.org/1999/02/22-rdf-syntax-ns#"
   xmlns:svg="http://www.w3.org/2000/svg"
   xmlns="http://www.w3.org/2000/svg"
   xmlns:xlink="http://www.w3.org/1999/xlink"
   xmlns:sodipodi="http://sodipodi.sourceforge.net/DTD/sodipodi-0.dtd"
   xmlns:inkscape="http://www.inkscape.org/namespaces/inkscape"
   width="130"
   height="130"
   viewBox="0 0 130 130"
   id="svg4392"
   version="1.1"
   inkscape:version="0.91 r13725"
   sodipodi:docname="icon-secure.svg">
  <defs
     id="defs4394">
    <linearGradient
       inkscape:collect="always"
       xlink:href="#linearGradient3526"
       id="linearGradient4340"
       gradientUnits="userSpaceOnUse"
       x1="23.571428"
       y1="499.50507"
       x2="603.57141"
       y2="499.50507" />
    <linearGradient
       inkscape:collect="always"
       id="linearGradient3526">
      <stop
         style="stop-color:#ff3aca;stop-opacity:1"
         offset="0"
         id="stop3528" />
      <stop
         style="stop-color:#0088f3;stop-opacity:1"
         offset="1"
         id="stop3530" />
    </linearGradient>
  </defs>
  <sodipodi:namedview
     id="base"
     pagecolor="#ffffff"
     bordercolor="#666666"
     borderopacity="1.0"
     inkscape:pageopacity="0.0"
     inkscape:pageshadow="2"
     inkscape:zoom="2.8"
     inkscape:cx="62.85856"
     inkscape:cy="43.572923"
     inkscape:document-units="px"
     inkscape:current-layer="layer1"
     showgrid="false"
     units="px"
     inkscape:window-width="1366"
     inkscape:window-height="715"
     inkscape:window-x="-8"
     inkscape:window-y="-8"
     inkscape:window-maximized="1" />
  <metadata
     id="metadata4397">
    <rdf:RDF>
      <cc:Work
         rdf:about="">
        <dc:format>image/svg+xml</dc:format>
        <dc:type
           rdf:resource="http://purl.org/dc/dcmitype/StillImage" />
        <dc:title></dc:title>
      </cc:Work>
    </rdf:RDF>
  </metadata>
  <g
     inkscape:label="Layer 1"
     inkscape:groupmode="layer"
     id="layer1"
     transform="translate(0,-922.36216)">
    <g
       transform="translate(-489.28571,461.18107)"
       id="g4358">
      <path
         class="fil0"
         d="m 554.28571,588.13616 0,0 c -0.18643,0 -0.31071,0 -0.49713,-0.0621 0,0 -47.84895,-20.44455 -47.84895,-61.89292 l 0,-42.3805 c 0,-0.49713 0.31071,-0.93212 0.80784,-1.11854 l 47.10325,-18.39389 c 0.12428,-0.0621 0.24856,-0.0621 0.37285,-0.0621 l 0.12428,0 c 0.12428,0 0.24857,0 0.37285,0.0621 l 47.10325,18.39389 c 0.49713,0.18642 0.80784,0.62141 0.80784,1.11854 l 0,42.3805 c 0,41.44837 -47.84895,61.89292 -47.84895,61.89292 -0.12428,0.0621 -0.31071,0.0621 -0.49713,0.0621 l 0,0 z m -16.21893,-60.52581 -14.66539,0 c -0.7457,0 -1.36711,-0.68355 -1.36711,-1.42925 0,-0.7457 0.62141,-1.42926 1.36711,-1.42926 l 14.66539,0 c 0.7457,0 1.36711,0.68356 1.36711,1.42926 0,0.7457 -0.62141,1.42925 -1.36711,1.42925 z m 47.10325,0 -14.66539,0 c -0.7457,0 -1.36712,-0.68355 -1.36712,-1.42925 0,-0.7457 0.62142,-1.42926 1.36712,-1.42926 l 14.66539,0 c 0.7457,0 1.36711,0.68356 1.36711,1.42926 0,0.7457 -0.62141,1.42925 -1.36711,1.42925 z m -30.88432,44.12046 c -0.68356,0 -1.24283,-0.55927 -1.24283,-1.24283 l 0,-34.17782 c 0,-1.67782 2.48566,-1.67782 2.48566,0 l 0,34.17782 c 0,0.68356 -0.55928,1.24283 -1.24283,1.24283 z m 0,-54.12524 c -0.68356,0 -1.24283,-0.55927 -1.24283,-1.24283 l 0,-34.17782 c 0,-1.67782 2.48566,-1.67782 2.48566,0 l 0,34.17782 c 0,0.68356 -0.55928,1.24283 -1.24283,1.24283 z m 0,67.92065 c 1.49139,-0.68355 45.86042,-20.50669 45.86042,-59.34512 l 0,-41.51052 -45.86042,-17.89675 -45.86042,17.89675 0,41.51052 c 0,38.83843 44.36902,58.66157 45.86042,59.34512 z"
         id="path3392"
         inkscape:connector-curvature="0"
         style="clip-rule:evenodd;fill:url(#linearGradient4340);fill-opacity:1;fill-rule:evenodd;image-rendering:optimizeQuality;shape-rendering:geometricPrecision;text-rendering:geometricPrecision" />
      <rect
         class="fil1"
         width="130"
         height="130"
         id="rect3394"
         x="489.28571"
         y="461.18109"
         style="clip-rule:evenodd;fill:none;fill-rule:evenodd;image-rendering:optimizeQuality;shape-rendering:geometricPrecision;text-rendering:geometricPrecision" />
    </g>
  </g>
</svg>
