<?xml version="1.0" encoding="UTF-8" standalone="no"?>
<!-- Created with Inkscape (http://www.inkscape.org/) -->

<svg
   xmlns:dc="http://purl.org/dc/elements/1.1/"
   xmlns:cc="http://creativecommons.org/ns#"
   xmlns:rdf="http://www.w3.org/1999/02/22-rdf-syntax-ns#"
   xmlns:svg="http://www.w3.org/2000/svg"
   xmlns="http://www.w3.org/2000/svg"
   xmlns:xlink="http://www.w3.org/1999/xlink"
   xmlns:sodipodi="http://sodipodi.sourceforge.net/DTD/sodipodi-0.dtd"
   xmlns:inkscape="http://www.inkscape.org/namespaces/inkscape"
   width="130"
   height="130"
   viewBox="0 0 130 130"
   id="svg4392"
   version="1.1"
   inkscape:version="0.91 r13725"
   sodipodi:docname="icon-card.svg">
  <defs
     id="defs4394">
    <linearGradient
       inkscape:collect="always"
       xlink:href="#linearGradient3526"
       id="linearGradient4334"
       gradientUnits="userSpaceOnUse"
       x1="23.571428"
       y1="499.50507"
       x2="603.57141"
       y2="499.50507" />
    <linearGradient
       inkscape:collect="always"
       id="linearGradient3526">
      <stop
         style="stop-color:#ff3aca;stop-opacity:1"
         offset="0"
         id="stop3528" />
      <stop
         style="stop-color:#0088f3;stop-opacity:1"
         offset="1"
         id="stop3530" />
    </linearGradient>
  </defs>
  <sodipodi:namedview
     id="base"
     pagecolor="#ffffff"
     bordercolor="#666666"
     borderopacity="1.0"
     inkscape:pageopacity="0.0"
     inkscape:pageshadow="2"
     inkscape:zoom="2.8"
     inkscape:cx="62.85856"
     inkscape:cy="43.572923"
     inkscape:document-units="px"
     inkscape:current-layer="layer1"
     showgrid="false"
     units="px"
     inkscape:window-width="1366"
     inkscape:window-height="715"
     inkscape:window-x="-8"
     inkscape:window-y="-8"
     inkscape:window-maximized="1" />
  <metadata
     id="metadata4397">
    <rdf:RDF>
      <cc:Work
         rdf:about="">
        <dc:format>image/svg+xml</dc:format>
        <dc:type
           rdf:resource="http://purl.org/dc/dcmitype/StillImage" />
        <dc:title></dc:title>
      </cc:Work>
    </rdf:RDF>
  </metadata>
  <g
     inkscape:label="Layer 1"
     inkscape:groupmode="layer"
     id="layer1"
     transform="translate(0,-922.36216)">
    <g
       transform="translate(-23.571428,461.18107)"
       id="g4346">
      <rect
         class="fil1"
         width="130"
         height="130"
         id="rect3346"
         x="23.571428"
         y="461.18109"
         style="clip-rule:evenodd;fill:none;fill-rule:evenodd;image-rendering:optimizeQuality;shape-rendering:geometricPrecision;text-rendering:geometricPrecision" />
      <path
         class="fil0"
         d="m 117.24543,474.29882 c 6.05433,-2.35446 13.11772,0.67271 15.47218,6.72704 l 19.50841,49.27555 c 2.52264,6.22251 -0.50453,13.2859 -6.72704,15.64036 l -18.49935,7.39975 c -0.6727,0.16817 -1.51358,-0.16818 -1.84993,-0.84088 -0.16818,-0.67271 0.16817,-1.51359 0.84088,-1.84994 l 18.49935,-7.39974 c 4.70893,-1.84994 7.06339,-7.06339 5.21345,-11.94049 l -19.50841,-49.27555 c -1.84993,-4.70893 -7.23156,-6.89522 -11.94049,-5.04528 0,0 0,0 0,0 l -56.338938,22.19922 c -0.672703,0.33635 -1.513583,0 -1.849935,-0.6727 -0.336352,-0.84088 0,-1.68176 0.84088,-1.84994 l 56.338943,-22.3674 c 0,0 0,0 0,0 z m -7.06339,27.58086 c 6.72703,0 12.10866,5.38163 12.10866,11.94049 l 0,52.97542 c 0,6.72704 -5.38163,12.10867 -12.10866,12.10867 l -74.165592,0 c -6.558862,0 -11.940492,-5.38163 -11.940492,-12.10867 l 0,-52.97542 c 0,-6.55886 5.213454,-11.94049 11.940492,-11.94049 l 74.165592,0 z m 0,2.69081 c 0,0 0,0 0,0 l -74.165592,0 c -5.045279,0 -9.249677,4.2044 -9.249677,9.24968 l 0,52.97542 c 0,5.21345 4.204398,9.24968 9.249677,9.24968 l 74.165592,0 c 5.21345,0 9.24967,-4.03623 9.24967,-9.24968 l 0,-52.97542 c 0,-5.04528 -4.03622,-9.24968 -9.24967,-9.24968 z m -58.693406,37.16689 -14.463131,0 c -0.84088,0 -1.513583,-0.67271 -1.513583,-1.34541 0,-0.84088 0.672703,-1.51359 1.513583,-1.51359 l 14.463131,0 c 0.84088,0 1.513583,0.67271 1.513583,1.51359 0,0.6727 -0.672703,1.34541 -1.513583,1.34541 z m -14.463131,12.27684 72.315657,0 c 0.6727,0 1.3454,0.6727 1.3454,1.34541 0,0.84088 -0.6727,1.51358 -1.3454,1.51358 l -72.315657,0 c -0.84088,0 -1.513583,-0.6727 -1.513583,-1.51358 0,-0.67271 0.672703,-1.34541 1.513583,-1.34541 z"
         id="path3344"
         inkscape:connector-curvature="0"
         style="clip-rule:evenodd;fill:url(#linearGradient4334);fill-opacity:1;fill-rule:evenodd;image-rendering:optimizeQuality;shape-rendering:geometricPrecision;text-rendering:geometricPrecision" />
    </g>
  </g>
</svg>
