<?xml version="1.0" encoding="UTF-8" standalone="no"?>
<!-- Created with Inkscape (http://www.inkscape.org/) -->

<svg
   xmlns:dc="http://purl.org/dc/elements/1.1/"
   xmlns:cc="http://creativecommons.org/ns#"
   xmlns:rdf="http://www.w3.org/1999/02/22-rdf-syntax-ns#"
   xmlns:svg="http://www.w3.org/2000/svg"
   xmlns="http://www.w3.org/2000/svg"
   xmlns:xlink="http://www.w3.org/1999/xlink"
   xmlns:sodipodi="http://sodipodi.sourceforge.net/DTD/sodipodi-0.dtd"
   xmlns:inkscape="http://www.inkscape.org/namespaces/inkscape"
   id="svg2"
   version="1.1"
   inkscape:version="0.91 r13725"
   xml:space="preserve"
   width="452"
   height="465.39783"
   viewBox="0 0 452 465.39784"
   sodipodi:docname="img-limits-coin3.svg"><metadata
     id="metadata8"><rdf:RDF><cc:Work
         rdf:about=""><dc:format>image/svg+xml</dc:format><dc:type
           rdf:resource="http://purl.org/dc/dcmitype/StillImage" /><dc:title></dc:title></cc:Work></rdf:RDF></metadata><defs
     id="defs6"><clipPath
       clipPathUnits="userSpaceOnUse"
       id="clipPath16"><path
         d="m 0,94.105 47.823,0 L 47.823,0 0,0 0,94.105 Z"
         id="path18"
         inkscape:connector-curvature="0" /></clipPath><pattern
       y="0"
       x="0"
       height="6"
       width="6"
       patternUnits="userSpaceOnUse"
       id="EMFhbasepattern" /><linearGradient
       inkscape:collect="always"
       id="linearGradient4322"><stop
         style="stop-color:#ff3aca;stop-opacity:1"
         offset="0"
         id="stop4324" /><stop
         style="stop-color:#0088f3;stop-opacity:1"
         offset="1"
         id="stop4326" /></linearGradient><linearGradient
       inkscape:collect="always"
       xlink:href="#linearGradient4322"
       id="linearGradient4434"
       gradientUnits="userSpaceOnUse"
       x1="12.36121"
       y1="62.2048"
       x2="140.75829"
       y2="63.799793"
       gradientTransform="matrix(2.8193395,0,0,2.8298626,31.169062,-154.01378)" /></defs><sodipodi:namedview
     pagecolor="#ffffff"
     bordercolor="#666666"
     borderopacity="1"
     objecttolerance="10"
     gridtolerance="10"
     guidetolerance="10"
     inkscape:pageopacity="0"
     inkscape:pageshadow="2"
     inkscape:window-width="1366"
     inkscape:window-height="715"
     id="namedview4"
     showgrid="false"
     inkscape:zoom="0.50156903"
     inkscape:cx="-347.95566"
     inkscape:cy="25.500004"
     inkscape:window-x="-8"
     inkscape:window-y="-8"
     inkscape:window-maximized="1"
     inkscape:current-layer="g10"
     fit-margin-top="0"
     fit-margin-left="0"
     fit-margin-right="0"
     fit-margin-bottom="0" /><g
     id="g10"
     inkscape:groupmode="layer"
     inkscape:label="Векторный смарт-объект1"
     transform="matrix(1.25,0,0,-1.25,-82.771247,438.90097)"><path
       inkscape:connector-curvature="0"
       id="path4301"
       d="m 334.13607,47.872684 4.53029,-1.24652 c 0.51814,-0.13606 0.83387,-0.680458 0.69829,-1.224176 -0.13476,-0.521351 -0.69829,-0.838907 -1.21708,-0.702825 l -4.52963,1.246543 c -0.51879,0.13606 -0.83388,0.680458 -0.69895,1.201809 0.15789,0.543719 0.69895,0.861274 1.21708,0.725169 z m -14.78501,7.141215 3.96695,-2.493697 c 0.45065,-0.294555 0.58561,-0.906643 0.31571,-1.38326 -0.29343,-0.453004 -0.92423,-0.612088 -1.37493,-0.316922 l -3.96695,2.49372 c -0.47295,0.294533 -0.60853,0.928988 -0.31509,1.382626 0.29284,0.475983 0.90137,0.612065 1.37431,0.317533 z m -12.55328,11.765075 3.01976,-3.604158 c 0.36092,-0.40827 0.31572,-1.042703 -0.11255,-1.405605 -0.40549,-0.339923 -1.0363,-0.294554 -1.39722,0.113195 l -3.01976,3.604792 c -0.36092,0.407614 -0.29283,1.042703 0.11255,1.405627 0.42838,0.362268 1.03693,0.294532 1.39722,-0.113647 z m -8.11341,14.281773 1.87017,-4.30696 c 0.20299,-0.521352 -0.0225,-1.111072 -0.51815,-1.31489 -0.51815,-0.226814 -1.10439,0.02264 -1.30682,0.521351 l -1.84852,4.30696 c -0.22532,0.521374 0,1.111095 0.49587,1.314913 0.51878,0.226813 1.10439,0 1.30745,-0.521374 z m -3.62894,16.072691 0.54107,-4.692885 c 0.0451,-0.543719 -0.33801,-1.042703 -0.87907,-1.088071 -0.54107,-0.06769 -1.03628,0.317533 -1.1044,0.861908 l -0.51815,4.692229 c -0.0674,0.544353 0.31573,1.042703 0.87907,1.088071 0.54107,0.06837 1.03693,-0.317533 1.08148,-0.861252 z m 1.14961,16.321832 -0.83387,-4.62449 c -0.11277,-0.54436 -0.63083,-0.90662 -1.14961,-0.79354 -0.54041,0.0908 -0.90133,0.61209 -0.81095,1.15644 l 0.85615,4.62452 c 0.0904,0.54371 0.60853,0.90662 1.14959,0.79353 0.54107,-0.0908 0.90135,-0.61208 0.78869,-1.15646 z m 5.94978,15.5967 -2.16363,-4.19388 c -0.24759,-0.476 -0.83387,-0.65745 -1.32973,-0.40828 -0.47295,0.2492 -0.67601,0.86127 -0.42775,1.33791 l 2.1636,4.17085 c 0.24762,0.49902 0.85616,0.67982 1.35202,0.43065 0.47361,-0.24931 0.65373,-0.86127 0.40549,-1.33725 z m 9.91672,12.7854 -3.26802,-3.37795 c -0.3832,-0.38528 -1.01401,-0.38528 -1.39722,-0.0226 -0.3832,0.38525 -0.40546,1.01971 -0.0225,1.42797 l 3.26802,3.37798 c 0.38257,0.38526 1.01401,0.40761 1.39722,0.0226 0.3832,-0.38529 0.40549,-1.01971 0.0226,-1.42801 z m 13.68061,9.67966 -4.12481,-2.24388 c -0.47294,-0.24988 -1.0815,-0.0908 -1.32974,0.40761 -0.26981,0.47601 -0.0897,1.08809 0.3832,1.33791 l 4.12481,2.26689 c 0.47295,0.24902 1.0815,0.0676 1.32974,-0.40827 0.27066,-0.47601 0.0897,-1.08808 -0.3832,-1.36026 z m 15.93397,5.16886 -4.57485,-0.90663 c -0.54106,-0.11376 -1.05985,0.22611 -1.17251,0.77054 -0.11249,0.54373 0.24838,1.06508 0.76641,1.17881 l 4.59775,0.92964 c 0.54109,0.0908 1.0592,-0.24988 1.17189,-0.79355 0.11249,-0.54435 -0.24754,-1.06573 -0.78869,-1.17881 z m 16.45277,0.20375 -4.64298,0.47598 c -0.54105,0.0453 -0.9465,0.54438 -0.90131,1.08809 0.0674,0.54438 0.54041,0.95199 1.10439,0.88427 l 4.64233,-0.45363 c 0.54106,-0.0676 0.94653,-0.54373 0.90199,-1.08808 -0.0682,-0.54373 -0.54109,-0.95199 -1.10442,-0.90663 z m 16.27198,-4.85132 -4.30496,1.85925 c -0.51814,0.22611 -0.74349,0.7929 -0.51814,1.3149 0.203,0.49836 0.78866,0.72518 1.28455,0.52137 l 4.30494,-1.85928 c 0.51813,-0.22667 0.74348,-0.81587 0.51813,-1.31489 -0.20242,-0.49834 -0.78865,-0.72515 -1.28452,-0.52135 z m 13.88302,-9.3851 -3.56082,3.06042 c -0.4284,0.33992 -0.47297,0.975 -0.11249,1.38264 0.33798,0.43127 0.96945,0.47663 1.39721,0.11376 l 3.56082,-3.03808 c 0.40613,-0.36226 0.45132,-0.99733 0.11334,-1.40498 -0.36093,-0.43127 -0.99176,-0.47601 -1.39786,-0.11376 z m 10.45778,-13.10297 -2.5016,3.99005 c -0.29344,0.45363 -0.15788,1.06573 0.31509,1.36026 0.45132,0.29456 1.08212,0.15847 1.37494,-0.29453 l 2.47932,-3.99005 c 0.29282,-0.47601 0.15789,-1.08808 -0.29281,-1.38264 -0.4736,-0.29517 -1.08212,-0.15904 -1.37494,0.31691 z m 6.10765,-15.46059 -1.23936,4.53441 c -0.13561,0.54372 0.18016,1.0881 0.6983,1.22418 0.54106,0.15847 1.08215,-0.15915 1.21708,-0.7028 l 1.24,-4.53378 c 0.13477,-0.52201 -0.181,-1.08873 -0.69894,-1.22418 -0.54106,-0.13606 -1.08212,0.18089 -1.21708,0.70217 z m 1.30747,-16.480304 0.15732,4.715234 c 0.0225,0.54435 0.47356,0.97499 1.01465,0.97499 0.54041,-0.0232 0.99173,-0.47599 0.96881,-1.04271 l -0.15789,-4.692882 c 0,-0.544353 -0.47294,-0.997357 -1.01403,-0.97499 -0.54106,0.0232 -0.96881,0.476006 -0.96881,1.020358 z m -3.7416,-16.775493 1.55506,4.420698 c 0.18015,0.521351 0.74413,0.793539 1.26227,0.612088 0.51814,-0.181338 0.78868,-0.748171 0.60853,-1.269544 l -1.55506,-4.443043 c -0.203,-0.521351 -0.76641,-0.793539 -1.28455,-0.589721 -0.4959,0.181564 -0.78933,0.748171 -0.58625,1.269522 z m -8.15858,-14.213404 2.77211,3.785609 c 0.33801,0.453616 0.94657,0.544352 1.39724,0.20375 0.4284,-0.316899 0.54106,-0.928987 0.20299,-1.382603 l -2.77217,-3.785609 c -0.31571,-0.453638 -0.94654,-0.544352 -1.37493,-0.226813 -0.45068,0.317533 -0.54106,0.951988 -0.22527,1.405626 z m -12.08036,-11.38044 3.74163,2.811231 c 0.45067,0.317556 1.08147,0.226814 1.39718,-0.20375 0.31576,-0.453638 0.22526,-1.088093 -0.203,-1.405627 l -3.76387,-2.811253 c -0.42775,-0.316899 -1.0592,-0.226163 -1.37429,0.204429 -0.33866,0.453005 -0.2481,1.06507 0.20243,1.404993 z m -14.7169,-7.253662 4.3947,1.586444 c 0.51817,0.181564 1.08215,-0.09078 1.26225,-0.589087 0.18015,-0.521374 -0.0674,-1.111095 -0.58623,-1.292545 l -4.41697,-1.586444 c -0.51879,-0.181564 -1.08215,0.09078 -1.26228,0.612088 -0.18015,0.521374 0.0905,1.088093 0.60853,1.269544 z m -16.63289,-2.629802 4.66525,0.20375 c 0.5633,0.0232 1.014,-0.407636 1.03692,-0.974356 0.0226,-0.544352 -0.40613,-0.997991 -0.94656,-1.020358 l -4.66525,-0.20375 c -0.56395,-0.0232 -1.01462,0.407636 -1.03693,0.951988 -0.0225,0.566743 0.40551,1.019724 0.94657,1.042726 z m 3.3132,65.673325 0,-44.999142 c 0,-2.855988 -2.34439,-5.122866 -5.16108,-5.122866 -2.81737,0 -5.13884,2.266878 -5.13884,5.122866 l 0,44.999142 -19.08932,0 c -2.81734,0 -5.13881,2.26688 -5.13881,5.12286 0,2.8566 2.32147,5.1235 5.13881,5.1235 l 52.62568,0 c 2.81668,0 5.13816,-2.2669 5.13816,-5.1235 0,-2.85598 -2.32148,-5.12286 -5.13816,-5.12286 z m 23.23644,8.25165 -52.62568,0 c -1.71295,0 -3.15535,-1.38326 -3.15535,-3.12879 0,-1.74552 1.4424,-3.12815 3.15535,-3.12815 l 20.08105,0 c 0.54106,0 0.99173,-0.45364 0.99173,-0.99736 l 0,-45.996492 c 0,-1.745527 1.44243,-3.128152 3.15538,-3.128152 1.73522,0 3.17762,1.382625 3.17762,3.128152 l 0,45.996492 c 0,0.54372 0.4284,0.99736 0.99173,0.99736 l 24.22817,0 c 1.71291,0 3.15532,1.38263 3.15532,3.12815 0,1.74553 -1.44241,3.12879 -3.15532,3.12879 z m -52.62568,5.48577 c -2.81734,0 -5.13881,2.26688 -5.13881,5.1235 0,2.8336 2.32147,5.10049 5.13881,5.10049 l 52.62568,0 c 2.81668,0 5.13816,-2.26689 5.13816,-5.10049 0,-2.85662 -2.32148,-5.1235 -5.13816,-5.1235 z m 0,1.9947 52.62568,0 c 1.71291,0 3.15532,1.38327 3.15532,3.1288 0,1.74551 -1.44241,3.10515 -3.15532,3.10515 l -52.62568,0 c -1.71295,0 -3.15535,-1.35964 -3.15535,-3.10515 0,-1.74553 1.4424,-3.1288 3.15535,-3.1288 z m 91.25497,-25.36702 c 0,-36.202504 -29.63684,-64.902155 -65.40428,-64.902155 -35.78968,0 -65.4272,28.699651 -65.4272,64.902155 0,36.18076 29.63752,64.87976 65.4272,64.87976 35.76744,0 65.40428,-28.67664 65.40428,-64.87976 z m -1.98346,0 c 0,35.09203 -28.7578,62.88507 -63.42082,62.88507 -34.68529,0 -63.44373,-27.79304 -63.44373,-62.88507 0,-35.11441 28.75844,-62.907442 63.44373,-62.907442 34.66302,0 63.42082,27.793032 63.42082,62.907442 z m -106.96363,86.23438 0,-10.51854 c 0,-0.54435 -0.45067,-0.99733 -0.99173,-0.99733 -0.54107,0 -0.99173,0.45298 -0.99173,0.99733 l 0,10.51854 c 0,0.54438 0.45066,0.99736 0.99173,0.99736 0.54106,0 0.99173,-0.45298 0.99173,-0.99736 z m 27.40578,43.20762 0,-43.20762 c 0,-0.54435 -0.45069,-0.99733 -0.99175,-0.99733 -0.54104,0 -0.99174,0.45298 -0.99174,0.99733 l 0,43.20762 c 0,0.54435 0.4507,0.99735 0.99174,0.99735 0.54106,0 0.99175,-0.453 0.99175,-0.99735 z m 32.1162,46.4495 0,-89.65712 c 0,-0.54435 -0.45067,-0.99733 -0.99173,-0.99733 -0.54106,0 -0.99173,0.45298 -0.99173,0.99733 l 0,89.65712 c 0,0.54436 0.45067,0.99736 0.99173,0.99736 0.54106,0 0.99173,-0.453 0.99173,-0.99736 z m 32.45421,-83.42316 0,-17.34222 c 0,-0.54372 -0.45067,-0.99735 -0.99173,-0.99735 -0.56334,0 -0.99173,0.45363 -0.99173,0.99735 l 0,17.34222 c 0,0.56671 0.42839,0.99736 0.99173,0.99736 0.54106,0 0.99173,-0.43065 0.99173,-0.99736 z"
       style="fill:url(#linearGradient4434);fill-opacity:1;fill-rule:evenodd;stroke:none" /></g></svg>