<?xml version="1.0" encoding="UTF-8" standalone="no"?>
<!-- Created with Inkscape (http://www.inkscape.org/) -->

<svg
   xmlns:dc="http://purl.org/dc/elements/1.1/"
   xmlns:cc="http://creativecommons.org/ns#"
   xmlns:rdf="http://www.w3.org/1999/02/22-rdf-syntax-ns#"
   xmlns:svg="http://www.w3.org/2000/svg"
   xmlns="http://www.w3.org/2000/svg"
   xmlns:xlink="http://www.w3.org/1999/xlink"
   xmlns:sodipodi="http://sodipodi.sourceforge.net/DTD/sodipodi-0.dtd"
   xmlns:inkscape="http://www.inkscape.org/namespaces/inkscape"
   id="svg2"
   version="1.1"
   inkscape:version="0.91 r13725"
   xml:space="preserve"
   width="452"
   height="465.39783"
   viewBox="0 0 452 465.39784"
   sodipodi:docname="img-limits-card.svg"><metadata
     id="metadata8"><rdf:RDF><cc:Work
         rdf:about=""><dc:format>image/svg+xml</dc:format><dc:type
           rdf:resource="http://purl.org/dc/dcmitype/StillImage" /><dc:title></dc:title></cc:Work></rdf:RDF></metadata><defs
     id="defs6"><clipPath
       clipPathUnits="userSpaceOnUse"
       id="clipPath16"><path
         d="m 0,94.105 47.823,0 L 47.823,0 0,0 0,94.105 Z"
         id="path18"
         inkscape:connector-curvature="0" /></clipPath><pattern
       y="0"
       x="0"
       height="6"
       width="6"
       patternUnits="userSpaceOnUse"
       id="EMFhbasepattern" /><linearGradient
       inkscape:collect="always"
       id="linearGradient4322"><stop
         style="stop-color:#ff3aca;stop-opacity:1"
         offset="0"
         id="stop4324" /><stop
         style="stop-color:#0088f3;stop-opacity:1"
         offset="1"
         id="stop4326" /></linearGradient><linearGradient
       inkscape:collect="always"
       xlink:href="#linearGradient4322"
       id="linearGradient4432"
       gradientUnits="userSpaceOnUse"
       x1="12.36121"
       y1="62.2048"
       x2="140.75829"
       y2="63.799793"
       gradientTransform="matrix(2.8193395,0,0,2.8298626,31.169062,179.26796)" /></defs><sodipodi:namedview
     pagecolor="#ffffff"
     bordercolor="#666666"
     borderopacity="1"
     objecttolerance="10"
     gridtolerance="10"
     guidetolerance="10"
     inkscape:pageopacity="0"
     inkscape:pageshadow="2"
     inkscape:window-width="1366"
     inkscape:window-height="715"
     id="namedview4"
     showgrid="false"
     inkscape:zoom="0.50156903"
     inkscape:cx="-347.95566"
     inkscape:cy="25.500004"
     inkscape:window-x="-8"
     inkscape:window-y="-8"
     inkscape:window-maximized="1"
     inkscape:current-layer="g10"
     fit-margin-top="0"
     fit-margin-left="0"
     fit-margin-right="0"
     fit-margin-bottom="0" /><g
     id="g10"
     inkscape:groupmode="layer"
     inkscape:label="Векторный смарт-объект1"
     transform="matrix(1.25,0,0,-1.25,-82.771247,438.90097)"><path
       inkscape:connector-curvature="0"
       id="path4299"
       d="m 219.30668,236.34255 c 3.13243,-3.78559 2.54681,-9.43047 -1.26227,-12.49088 l -5.09363,-4.12551 0,0 -0.0452,-0.0453 -10.20953,-8.25165 -0.0223,-0.0226 c -0.0228,-0.0232 -0.0228,-0.0232 -0.0452,-0.0453 l -10.77287,-8.72829 c -0.0228,-0.0226 -0.0452,-0.0226 -0.0452,-0.0448 -0.0223,0 -0.0452,-0.0232 -0.0675,-0.0453 l -4.46281,-3.60479 c -3.78617,-3.06044 -9.42086,-2.51606 -12.55329,1.26952 l -28.37523,34.45761 c -3.13244,3.80861 -2.54681,9.40746 1.26227,12.49088 l 4.43989,3.60416 c 0.0228,0.0232 0.0452,0.0232 0.0452,0.0453 0.0223,0.0232 0.0675,0.0453 0.0904,0.0453 l 10.74996,8.72764 0.0452,0.0232 c 0.0228,0.0226 0.0452,0.0453 0.0675,0.0677 l 10.16497,8.20628 c 0,0.0232 0.0223,0.0453 0.0452,0.0453 0.0223,0.0226 0.0446,0.0453 0.0675,0.0453 l 5.04844,4.10317 c 3.80844,3.08278 9.42085,2.53906 12.55329,-1.26955 l 6.04016,-7.32203 0.0223,-0.0453 14.33434,-17.40995 z m -65.15667,13.5566 9.82634,-11.94716 9.33046,7.54949 -9.82633,11.94652 z m 11.0886,-13.48823 15.48331,-18.77019 30.83165,24.98112 -15.46102,18.77085 -10.56982,-8.56919 z m 16.74557,-20.31192 9.33047,-11.33444 9.33046,7.54885 -9.33046,11.33444 z m 7.77539,-12.58162 -9.89381,12.0149 c -0.0228,0.0232 -0.0452,0.0453 -0.0681,0.0677 l -7.7302,9.40809 -9.10512,-7.39038 13.29741,-16.1404 c 2.4335,-2.94734 6.82884,-3.37797 9.78113,-0.97499 z m -26.72977,32.4399 -10.43487,12.67235 -3.71869,-3.01507 c -2.95229,-2.40298 -3.42588,-6.73295 -0.99173,-9.67963 l 13.81555,-16.77549 9.10513,7.36738 -7.73019,9.38511 c -0.0228,0.0232 -0.0228,0.0453 -0.0452,0.0453 z m 12.26048,31.05727 9.84925,-11.94716 9.69075,7.86638 -5.43163,6.59684 c -2.43351,2.9697 -6.80593,3.40034 -9.78114,0.97501 z m 8.29417,-13.19371 -9.82697,11.94655 -8.7442,-7.07284 9.84861,-11.94655 z m 9.26299,-28.92581 9.33047,-11.3351 8.72193,7.07285 -9.33047,11.33509 z m 10.27701,8.31936 9.33046,-11.33444 4.35015,3.51343 c 2.92938,2.38061 3.40297,6.73294 0.96882,9.65728 0,0.0226 0,0.0226 0,0.0226 0,0 0,0 0,0 l -4.93576,6.00775 z m 18.50307,72.61009 57.78675,-70.18473 c 0.33801,-0.40764 0.29345,-1.04273 -0.13493,-1.405 -0.4284,-0.34053 -1.05921,-0.29516 -1.39721,0.13606 l -57.78676,70.18413 c -0.36092,0.43063 -0.29281,1.06509 0.13493,1.40562 0.40612,0.36227 1.03693,0.29456 1.39721,-0.13606 z M 243.69205,206.71391 345.40483,83.188933 c 0.33799,-0.40827 0.29279,-1.04335 -0.13476,-1.40562 -0.42843,-0.34055 -1.03695,-0.27224 -1.39786,0.13611 L 242.15989,205.44444 c -0.33801,0.43062 -0.27055,1.0657 0.13493,1.40563 0.4284,0.3629 1.05921,0.29453 1.39722,-0.13606 z M 122.57468,225.6202 282.07375,31.908563 c 0.36092,-0.42807 0.29345,-1.0606 -0.13493,-1.40562 -0.40548,-0.35778 -1.03693,-0.29391 -1.39721,0.14064 L 121.04209,224.35071 c -0.33807,0.40827 -0.29294,1.04272 0.13527,1.40562 0.4282,0.33993 1.03674,0.27218 1.39734,-0.13606 z M 419.3057,140.13396 c 6.22096,-7.54882 9.24069,-17.16076 8.36162,-26.93111 -0.90134,-10.11028 -5.8371,-19.291567 -13.70289,-25.661597 L 290.09739,-12.771117 c -4.0115,-3.23932 -8.60926,-5.64167 -13.56794,-7.02811 -4.7779,-1.33535 -9.78113,-1.71871 -14.69462,-1.13089 -9.69074,1.13089 -18.52598,5.91639 -24.74629,13.4620501 L 74.704584,189.73462 c -6.310539,7.66193 -9.30805,17.50066 -8.293852,27.4071 1.014193,9.92947 5.927436,18.9293 13.65782,25.1856 L 203.93604,342.63905 c 3.98859,3.24189 8.58635,5.64487 13.52211,7.05048 4.75562,1.36028 9.73658,1.74555 14.64943,1.1788 9.73658,-1.11107 18.57118,-5.93938 24.81441,-13.5336 L 419.3057,140.13396 c 0,0 0,0 0,0 0,0 0,0 0,0 z m -1.5099,-1.26952 -162.40661,197.20077 c -5.90459,7.18592 -14.28851,11.76571 -23.50695,12.83078 -9.5558,1.08809 -19.20199,-1.72253 -26.70684,-7.79802 L 81.308159,240.78625 c -7.302244,-5.93941 -11.967529,-14.44089 -12.936646,-23.84834 -0.946588,-9.3851 1.893164,-18.67948 7.86568,-25.93377 L 238.62134,-6.1966069 c 5.90458,-7.1623001 14.26623,-11.6730701 23.43883,-12.7656301 4.66587,-0.5431 9.42085,-0.17884 13.95114,1.09256 4.68751,1.31617 9.03765,3.57793 12.82382,6.63837 l 123.88998,100.31365 c 7.43736,6.03013 12.1026,14.712397 12.95875,24.301957 0.83388,9.24901 -2.00576,18.33957 -7.88806,25.48014 z"
       style="fill:url(#linearGradient4432);fill-opacity:1;fill-rule:evenodd;stroke:none" /></g></svg>