<?xml version="1.0" encoding="UTF-8" standalone="no"?>
<!-- Created with Inkscape (http://www.inkscape.org/) -->

<svg
   xmlns:dc="http://purl.org/dc/elements/1.1/"
   xmlns:cc="http://creativecommons.org/ns#"
   xmlns:rdf="http://www.w3.org/1999/02/22-rdf-syntax-ns#"
   xmlns:svg="http://www.w3.org/2000/svg"
   xmlns="http://www.w3.org/2000/svg"
   xmlns:xlink="http://www.w3.org/1999/xlink"
   xmlns:sodipodi="http://sodipodi.sourceforge.net/DTD/sodipodi-0.dtd"
   xmlns:inkscape="http://www.inkscape.org/namespaces/inkscape"
   id="svg2"
   version="1.1"
   inkscape:version="0.91 r13725"
   xml:space="preserve"
   width="452"
   height="465.39783"
   viewBox="0 0 452 465.39784"
   sodipodi:docname="img-limits-coin2.svg"><metadata
     id="metadata8"><rdf:RDF><cc:Work
         rdf:about=""><dc:format>image/svg+xml</dc:format><dc:type
           rdf:resource="http://purl.org/dc/dcmitype/StillImage" /><dc:title></dc:title></cc:Work></rdf:RDF></metadata><defs
     id="defs6"><clipPath
       clipPathUnits="userSpaceOnUse"
       id="clipPath16"><path
         d="m 0,94.105 47.823,0 L 47.823,0 0,0 0,94.105 Z"
         id="path18"
         inkscape:connector-curvature="0" /></clipPath><pattern
       y="0"
       x="0"
       height="6"
       width="6"
       patternUnits="userSpaceOnUse"
       id="EMFhbasepattern" /><linearGradient
       inkscape:collect="always"
       id="linearGradient4322"><stop
         style="stop-color:#ff3aca;stop-opacity:1"
         offset="0"
         id="stop4324" /><stop
         style="stop-color:#0088f3;stop-opacity:1"
         offset="1"
         id="stop4326" /></linearGradient><linearGradient
       inkscape:collect="always"
       xlink:href="#linearGradient4322"
       id="linearGradient4436"
       gradientUnits="userSpaceOnUse"
       x1="12.36121"
       y1="62.2048"
       x2="140.75829"
       y2="63.799793"
       gradientTransform="matrix(2.8193395,0,0,2.8298626,31.169062,-154.01378)" /></defs><sodipodi:namedview
     pagecolor="#ffffff"
     bordercolor="#666666"
     borderopacity="1"
     objecttolerance="10"
     gridtolerance="10"
     guidetolerance="10"
     inkscape:pageopacity="0"
     inkscape:pageshadow="2"
     inkscape:window-width="1366"
     inkscape:window-height="715"
     id="namedview4"
     showgrid="false"
     inkscape:zoom="0.50156903"
     inkscape:cx="-347.95566"
     inkscape:cy="25.500004"
     inkscape:window-x="-8"
     inkscape:window-y="-8"
     inkscape:window-maximized="1"
     inkscape:current-layer="g10"
     fit-margin-top="0"
     fit-margin-left="0"
     fit-margin-right="0"
     fit-margin-bottom="0" /><g
     id="g10"
     inkscape:groupmode="layer"
     inkscape:label="Векторный смарт-объект1"
     transform="matrix(1.25,0,0,-1.25,-82.771247,438.90097)"><path
       inkscape:connector-curvature="0"
       id="path4303"
       d="m 297.66972,261.32759 c 0,-12.69471 -10.41195,-22.78263 -22.96588,-22.78263 -12.57556,0 -22.98815,10.06491 -22.98815,22.78263 0,12.71771 10.41259,22.7826 22.98815,22.7826 12.55393,0.0226 22.96588,-10.06489 22.96588,-22.7826 z m -32.52168,54.47431 0,-13.73759 c 0,-0.54404 -0.45067,-0.99744 -0.99173,-0.99744 -0.54107,0 -0.99174,0.4534 -0.99174,0.99744 l 0,13.73759 c 0,0.5441 0.45067,0.9975 0.99174,0.9975 0.54106,0 0.99173,-0.4534 0.99173,-0.9975 z m 19.31466,34.32143 0,-48.05902 c 0,-0.54404 -0.45067,-0.99744 -0.99173,-0.99744 -0.54043,0 -0.9911,0.4534 -0.9911,0.99744 l 0,48.05902 c 0,0.54407 0.45067,0.99744 0.9911,0.99744 0.54106,0 0.99173,-0.45337 0.99173,-0.99744 z m -8.31644,-82.19891 0,-17.546 c 0,-0.54438 -0.42776,-0.998 -0.9911,-0.998 -0.54107,0 -0.99174,0.45362 -0.99174,0.998 l 0,17.546 -7.30244,0 c -0.54106,0 -0.99173,0.45301 -0.99173,0.99736 0,0.54373 0.45067,0.99736 0.99173,0.99736 l 16.60999,0 c 0.54106,0 0.99173,-0.45363 0.99173,-0.99736 0,-0.54435 -0.45067,-0.99736 -0.99173,-0.99736 z m 19.54063,-6.59683 c 0,11.60662 -9.53352,20.78789 -20.98305,20.78789 -11.47116,0 -21.00468,-9.18127 -21.00468,-20.78789 0,-11.60663 9.53352,-20.78792 21.00468,-20.78792 11.44953,0 20.98305,9.18129 20.98305,20.78792 z"
       style="fill:url(#linearGradient4436);fill-opacity:1;fill-rule:evenodd;stroke:none" /></g></svg>