<?xml version="1.0" encoding="UTF-8" standalone="no"?>
<!-- Created with Inkscape (http://www.inkscape.org/) -->

<svg
   xmlns:dc="http://purl.org/dc/elements/1.1/"
   xmlns:cc="http://creativecommons.org/ns#"
   xmlns:rdf="http://www.w3.org/1999/02/22-rdf-syntax-ns#"
   xmlns:svg="http://www.w3.org/2000/svg"
   xmlns="http://www.w3.org/2000/svg"
   xmlns:xlink="http://www.w3.org/1999/xlink"
   xmlns:sodipodi="http://sodipodi.sourceforge.net/DTD/sodipodi-0.dtd"
   xmlns:inkscape="http://www.inkscape.org/namespaces/inkscape"
   id="svg2"
   version="1.1"
   inkscape:version="0.91 r13725"
   xml:space="preserve"
   width="452"
   height="465.39783"
   viewBox="0 0 452 465.39784"
   sodipodi:docname="img-limits-coin1.svg"><metadata
     id="metadata8"><rdf:RDF><cc:Work
         rdf:about=""><dc:format>image/svg+xml</dc:format><dc:type
           rdf:resource="http://purl.org/dc/dcmitype/StillImage" /><dc:title></dc:title></cc:Work></rdf:RDF></metadata><defs
     id="defs6"><clipPath
       clipPathUnits="userSpaceOnUse"
       id="clipPath16"><path
         d="m 0,94.105 47.823,0 L 47.823,0 0,0 0,94.105 Z"
         id="path18"
         inkscape:connector-curvature="0" /></clipPath><pattern
       y="0"
       x="0"
       height="6"
       width="6"
       patternUnits="userSpaceOnUse"
       id="EMFhbasepattern" /><linearGradient
       inkscape:collect="always"
       id="linearGradient4322"><stop
         style="stop-color:#ff3aca;stop-opacity:1"
         offset="0"
         id="stop4324" /><stop
         style="stop-color:#0088f3;stop-opacity:1"
         offset="1"
         id="stop4326" /></linearGradient><linearGradient
       inkscape:collect="always"
       xlink:href="#linearGradient4322"
       id="linearGradient4438"
       gradientUnits="userSpaceOnUse"
       x1="12.36121"
       y1="62.2048"
       x2="140.75829"
       y2="63.799793"
       gradientTransform="matrix(2.8193395,0,0,2.8298626,31.169062,-154.01378)" /></defs><sodipodi:namedview
     pagecolor="#ffffff"
     bordercolor="#666666"
     borderopacity="1"
     objecttolerance="10"
     gridtolerance="10"
     guidetolerance="10"
     inkscape:pageopacity="0"
     inkscape:pageshadow="2"
     inkscape:window-width="1366"
     inkscape:window-height="715"
     id="namedview4"
     showgrid="false"
     inkscape:zoom="0.50156903"
     inkscape:cx="-347.95566"
     inkscape:cy="25.500004"
     inkscape:window-x="-8"
     inkscape:window-y="-8"
     inkscape:window-maximized="1"
     inkscape:current-layer="g10"
     fit-margin-top="0"
     fit-margin-left="0"
     fit-margin-right="0"
     fit-margin-bottom="0" /><g
     id="g10"
     inkscape:groupmode="layer"
     inkscape:label="Векторный смарт-объект1"
     transform="matrix(1.25,0,0,-1.25,-82.771247,438.90097)"><path
       inkscape:connector-curvature="0"
       id="path4305"
       d="m 167.58237,129.7094 3.40296,-0.45362 c 0.3832,-0.0453 0.65373,-0.52136 0.56398,-1.06573 -0.0904,-0.54371 -0.47359,-0.95198 -0.87906,-0.90662 l -3.40361,0.45363 c -0.40548,0.0454 -0.65309,0.54372 -0.56334,1.08808 0.0904,0.54372 0.47359,0.92963 0.87907,0.88426 z m -13.11663,5.48578 2.92937,-1.81326 c 0.33864,-0.22668 0.36093,-0.77117 0.0681,-1.22417 -0.29345,-0.45363 -0.83387,-0.65744 -1.17188,-0.45363 l -2.90773,1.83624 c -0.33801,0.20375 -0.36029,0.74819 -0.0675,1.20119 0.29281,0.47663 0.8116,0.65743 1.1496,0.45363 z m -9.46605,10.08789 1.93827,-2.8336 c 0.22535,-0.33989 0.0452,-0.86126 -0.40547,-1.15645 -0.47359,-0.29453 -1.01465,-0.27166 -1.23999,0.0685 l -1.93828,2.85598 c -0.22535,0.31754 -0.0452,0.83891 0.40612,1.13344 0.47295,0.29519 1.01401,0.27224 1.23935,-0.0676 z m -4.62004,13.1937 0.60854,-3.40031 c 0.0897,-0.38591 -0.29345,-0.79355 -0.83387,-0.88427 -0.54107,-0.0685 -1.03694,0.18139 -1.10441,0.56671 l -0.63145,3.40033 c -0.0675,0.38529 0.29345,0.79355 0.83387,0.88428 0.54106,0.0676 1.05921,-0.1814 1.12732,-0.56674 z m 1.05921,13.94126 -0.78868,-3.35497 c -0.0904,-0.40764 -0.60853,-0.6121 -1.12732,-0.47601 -0.51814,0.15904 -0.87907,0.58974 -0.78868,0.975 l 0.78868,3.35497 c 0.11266,0.40826 0.60854,0.61207 1.12732,0.45363 0.54043,-0.13612 0.90135,-0.56671 0.78868,-0.95262 z m 6.62579,12.30942 -2.09614,-2.74287 c -0.24762,-0.31692 -0.78868,-0.31692 -1.21644,0.0453 -0.42839,0.33989 -0.56398,0.88424 -0.31572,1.20181 l 2.07322,2.74287 c 0.24824,0.31754 0.78868,0.29454 1.21707,-0.0453 0.4284,-0.33993 0.56334,-0.88428 0.33801,-1.20182 z m 11.24646,8.68293 -3.01976,-1.63244 c -0.36092,-0.20375 -0.83387,0.0453 -1.08213,0.54373 -0.24762,0.47663 -0.15785,1.04334 0.20305,1.22417 l 3.01977,1.63244 c 0.338,0.20375 0.83387,-0.0453 1.08212,-0.54373 0.24762,-0.47664 0.15724,-1.04335 -0.20305,-1.22417 z m 13.36488,3.19587 -3.42588,-0.27166 c -0.40547,-0.0226 -0.74348,0.38528 -0.78868,0.92898 -0.0223,0.56674 0.27055,1.02037 0.67601,1.06573 l 3.42588,0.27223 c 0.38321,0.0226 0.74349,-0.38591 0.76641,-0.92964 0.0452,-0.5667 -0.27052,-1.02036 -0.65374,-1.06572 z m 13.97342,-2.62914 -3.24574,1.17881 c -0.36028,0.13555 -0.51814,0.65743 -0.31509,1.17881 0.20243,0.49834 0.67601,0.81588 1.0363,0.67979 l 3.24574,-1.17881 c 0.36028,-0.13612 0.51815,-0.65743 0.31572,-1.17881 -0.20305,-0.49899 -0.67664,-0.8159 -1.03693,-0.67979 z m 11.58447,-8.16093 -2.45706,2.40233 c -0.29281,0.29518 -0.20243,0.81653 0.18078,1.20182 0.38319,0.38525 0.94653,0.47598 1.23935,0.20375 l 2.45642,-2.42534 c 0.27055,-0.27223 0.20305,-0.8159 -0.20243,-1.20181 -0.3832,-0.38529 -0.94654,-0.47601 -1.21707,-0.18083 z m 7.03191,-11.76571 -1.30746,3.19649 c -0.13559,0.38529 0.15785,0.83892 0.65372,1.04272 0.51815,0.1814 1.05922,0.0453 1.21708,-0.33989 l 1.28454,-3.19653 c 0.15786,-0.3629 -0.13558,-0.81588 -0.63145,-1.02033 -0.51815,-0.20375 -1.05921,-0.0453 -1.21643,0.31754 z m 1.78041,-14.03261 0.11266,3.44634 c 0,0.40762 0.47295,0.70218 1.01402,0.67979 0.54106,-0.0453 0.96881,-0.38525 0.96881,-0.79352 l -0.13493,-3.4457 c 0,-0.40826 -0.45067,-0.70282 -1.01401,-0.67981 -0.54107,0.0226 -0.96946,0.38528 -0.94654,0.7929 z m -3.94466,-13.21606 1.4876,3.10578 c 0.15785,0.36293 0.69892,0.47601 1.19479,0.22695 0.47295,-0.24903 0.74349,-0.74816 0.56335,-1.13344 l -1.48761,-3.10578 c -0.15786,-0.3629 -0.69829,-0.45362 -1.19416,-0.20375 -0.47359,0.24931 -0.74412,0.74754 -0.56397,1.11044 z m -9.05994,-10.67698 2.61429,2.24388 c 0.29344,0.24988 0.83387,0.13612 1.17187,-0.29456 0.33865,-0.43062 0.38321,-0.99736 0.0681,-1.24653 l -2.61492,-2.24453 c -0.29281,-0.27223 -0.83388,-0.13612 -1.17188,0.29456 -0.33801,0.43062 -0.3832,0.99736 -0.0675,1.24718 z m -12.62076,-6.05314 3.29029,0.97498 c 0.38321,0.11319 0.8116,-0.22696 0.94655,-0.74816 0.13493,-0.52138 -0.0452,-1.06508 -0.4284,-1.17881 l -3.31257,-0.97436 c -0.3832,-0.11373 -0.8116,0.22619 -0.94718,0.77054 -0.13493,0.52136 0.0681,1.0427 0.45131,1.15581 z m 32.54396,32.82516 c 0,-22.329 -18.27773,-40.03345 -40.34226,-40.03345 -22.06454,0 -40.34227,17.70445 -40.34227,40.03345 0,22.30725 18.27773,40.0341 40.34227,40.0341 22.06453,0 40.34226,-17.72685 40.34226,-40.0341 z m -1.98284,0 c 0,21.21854 -17.39929,38.03939 -38.35942,38.03939 -20.96013,0 -38.35943,-16.82085 -38.35943,-38.03939 0,-21.21791 17.3993,-38.03875 38.35943,-38.03875 20.96013,0 38.35942,16.82084 38.35942,38.03875 z m -37.59303,11.01754 0,-32.64371 c 0,-0.54436 -0.45067,-0.99736 -0.99173,-0.99736 -0.54106,0 -0.99174,0.453 -0.99174,0.99736 l 0,32.64371 -13.54502,0 c -0.54106,0 -0.99174,0.45362 -0.99174,0.99735 0,0.54436 0.45068,0.99736 0.99174,0.99736 l 30.44845,0 c 0.56335,0 0.99174,-0.453 0.99174,-0.99736 0,-0.54373 -0.42839,-0.99735 -0.99174,-0.99735 z m -15.52849,10.22398 30.44845,0 c 0.56335,0 0.99174,-0.45363 0.99174,-0.99736 0,-0.54435 -0.42839,-0.99733 -0.99174,-0.99733 l -30.44845,0 c -0.54106,0 -0.99174,0.45298 -0.99174,0.99733 0,0.54373 0.45068,0.99736 0.99174,0.99736 z m 41.04119,70.1841 0,-36.38394 c 0,-0.54435 -0.45068,-0.99736 -0.99174,-0.99736 -0.54106,0 -0.99173,0.45301 -0.99173,0.99736 l 0,36.38394 c 0,0.54435 0.45067,0.99736 0.99173,0.99736 0.54106,0 0.99174,-0.45301 0.99174,-0.99736 z m -28.73552,34.57096 0,-66.76104 c 0,-0.54435 -0.45067,-0.99798 -0.99174,-0.99798 -0.54106,0 -0.99173,0.45363 -0.99173,0.99798 l 0,66.76104 c 0,0.54401 0.45067,0.99747 0.99173,0.99747 0.54107,0 0.99174,-0.45346 0.99174,-0.99747 z m -22.20012,-57.64812 0,-14.46323 c 0,-0.54373 -0.45067,-0.99736 -0.99109,-0.99736 -0.56398,0 -0.99174,0.45363 -0.99174,0.99736 l 0,14.46323 c 0,0.54373 0.42776,0.99736 0.99174,0.99736 0.54042,0 0.99109,-0.45363 0.99109,-0.99736 z"
       style="fill:url(#linearGradient4438);fill-opacity:1;fill-rule:evenodd;stroke:none" /></g></svg>