<?xml version="1.0" encoding="UTF-8" standalone="no"?>
<!-- Created with Inkscape (http://www.inkscape.org/) -->

<svg
   xmlns:dc="http://purl.org/dc/elements/1.1/"
   xmlns:cc="http://creativecommons.org/ns#"
   xmlns:rdf="http://www.w3.org/1999/02/22-rdf-syntax-ns#"
   xmlns:svg="http://www.w3.org/2000/svg"
   xmlns="http://www.w3.org/2000/svg"
   xmlns:xlink="http://www.w3.org/1999/xlink"
   xmlns:sodipodi="http://sodipodi.sourceforge.net/DTD/sodipodi-0.dtd"
   xmlns:inkscape="http://www.inkscape.org/namespaces/inkscape"
   width="112.04222mm"
   height="175.82445mm"
   viewBox="0 0 397 623.00001"
   id="svg4304"
   version="1.1"
   inkscape:version="0.91 r13725"
   sodipodi:docname="img-tarifs-lines.svg">
  <defs
     id="defs4306">
    <linearGradient
       inkscape:collect="always"
       id="linearGradient4873">
      <stop
         style="stop-color:#ff3aca;stop-opacity:1"
         offset="0"
         id="stop4875" />
      <stop
         style="stop-color:#0088f3;stop-opacity:1"
         offset="1"
         id="stop4877" />
    </linearGradient>
    <pattern
       y="0"
       x="0"
       height="6"
       width="6"
       patternUnits="userSpaceOnUse"
       id="EMFhbasepattern" />
    <linearGradient
       inkscape:collect="always"
       xlink:href="#linearGradient4873"
       id="linearGradient4879"
       x1="213.42422"
       y1="264.16895"
       x2="610.41418"
       y2="258.10803"
       gradientUnits="userSpaceOnUse" />
  </defs>
  <sodipodi:namedview
     id="base"
     pagecolor="#ffffff"
     bordercolor="#666666"
     borderopacity="1.0"
     inkscape:pageopacity="0.0"
     inkscape:pageshadow="2"
     inkscape:zoom="0.70000001"
     inkscape:cx="107.39049"
     inkscape:cy="313.3739"
     inkscape:document-units="px"
     inkscape:current-layer="layer1"
     showgrid="false"
     fit-margin-top="0"
     fit-margin-left="0"
     fit-margin-right="0"
     fit-margin-bottom="0"
     inkscape:window-width="1366"
     inkscape:window-height="715"
     inkscape:window-x="-8"
     inkscape:window-y="-8"
     inkscape:window-maximized="1" />
  <metadata
     id="metadata4309">
    <rdf:RDF>
      <cc:Work
         rdf:about="">
        <dc:format>image/svg+xml</dc:format>
        <dc:type
           rdf:resource="http://purl.org/dc/dcmitype/StillImage" />
        <dc:title></dc:title>
      </cc:Work>
    </rdf:RDF>
  </metadata>
  <g
     inkscape:label="Layer 1"
     inkscape:groupmode="layer"
     id="layer1"
     transform="translate(-212.91915,66.39188)">
    <path
       inkscape:connector-curvature="0"
       id="path4857"
       d="m 549.07932,272.53169 c -3.40349,5.67319 -8.93367,9.70102 -15.40023,11.17607 -6.12535,1.39034 -12.47816,0.3406 -17.81048,-2.92133 -5.3884,-3.29072 -9.24527,-8.48179 -10.86173,-14.58034 -1.70214,-6.38313 -0.73771,-13.21878 2.66578,-18.89276 3.37465,-5.6732 8.84877,-9.67306 15.2865,-11.14812 6.15416,-1.41829 12.535,-0.39655 17.9242,2.89417 5.38841,3.26194 9.24528,8.481 10.86173,14.55156 1.70215,6.41111 0.73772,13.21878 -2.66577,18.92075 z M 406.90624,423.47005 c 4.19732,2.58154 5.50217,8.14122 2.94935,12.33932 L 399.3343,453.2551 c -1.64529,2.6663 -4.50968,4.31164 -7.62964,4.31164 -1.64446,0 -3.26092,-0.4541 -4.65066,-1.30556 -4.19731,-2.58076 -5.50216,-8.14044 -2.97815,-12.33936 l 10.55009,-17.44491 c 2.55284,-4.22688 8.05498,-5.58843 12.2803,-3.00686 z m -1.3609,2.18421 c -2.97815,-1.84365 -6.92073,-0.87946 -8.73584,2.12743 l -10.55012,17.44491 c -1.81507,3.03567 -0.87869,7.00675 2.12751,8.85037 0.99244,0.62441 2.12668,0.9362 3.31777,0.9362 2.2124,0 4.283,-1.16246 5.44529,-3.09162 l 10.52208,-17.41693 c 1.84311,-3.03567 0.90755,-7.00675 -2.12669,-8.85036 z m 43.10801,-38.29483 c -5.04796,0 -9.98299,-1.41832 -14.26519,-4.05663 -6.26792,-3.85754 -10.66388,-9.9281 -12.39406,-17.07632 -1.73019,-7.17704 -0.56711,-14.60912 3.26172,-20.90673 4.9919,-8.28272 13.75496,-13.27555 23.45441,-13.27555 5.01994,0 9.95497,1.39033 14.26519,4.02864 6.04122,3.74403 10.38031,9.61629 12.19541,16.48072 1.92883,7.28975 0.85067,15.06243 -3.06307,21.53032 -4.99111,8.28272 -13.78301,13.27555 -23.45441,13.27555 z m 0,-2.55279 c 8.79189,0 16.73311,-4.51074 21.27084,-12.02754 3.54529,-5.87226 4.53773,-12.93579 2.77951,-19.57316 -1.64527,-6.24082 -5.55901,-11.57342 -11.06114,-14.94889 -3.91375,-2.38327 -8.36656,-3.65927 -12.93233,-3.65927 -8.7919,0 -16.73312,4.50995 -21.27085,12.02675 -3.48841,5.73076 -4.5089,12.48165 -2.94932,19.00631 1.55955,6.49588 5.53018,11.99876 11.23096,15.48775 3.8857,2.41127 8.36655,3.68805 12.93233,3.68805 z m 36.58538,-2.86536 c 0,0.0567 -0.0284,0.1136 -0.0562,0.17025 L 449.6745,440.7734 c -1.61642,2.6663 -4.50969,4.31167 -7.62881,4.31167 -1.6453,0 -3.23371,-0.45414 -4.65149,-1.30478 -4.19729,-2.58157 -5.50213,-8.11324 -2.94932,-12.33935 l 17.41319,-28.82087 c -1.07737,0.0855 -2.12669,0.14221 -3.20485,0.14221 -7.85553,0 -15.54123,-2.21299 -22.23448,-6.29761 -9.75629,-6.01376 -16.5633,-15.48772 -19.25709,-26.60785 -2.69462,-11.17611 -0.90756,-22.74955 5.01991,-32.56489 7.79866,-12.90617 21.44069,-20.65086 36.52851,-20.65086 7.85633,0 15.51319,2.18421 22.20644,6.29761 9.41588,5.78671 16.16601,14.92089 19.0016,25.61487 3.00699,11.28962 1.33369,23.34595 -4.67953,33.38759 z m -2.32533,-1.02095 c 0,-0.0567 0.0284,-0.11361 0.0849,-0.17026 5.70078,-9.44597 7.28919,-20.84993 4.45281,-31.54391 -2.66575,-10.04161 -8.99055,-18.63697 -17.86736,-24.08308 -6.29593,-3.85756 -13.49944,-5.92823 -20.87355,-5.92823 -14.1803,0 -26.99967,7.28976 -34.34495,19.43084 -5.58705,9.24771 -7.26036,20.11199 -4.73638,30.60771 2.52398,10.49492 8.96253,19.40206 18.15093,25.04726 6.26791,3.85757 13.50023,5.92903 20.87355,5.92903 1.81507,0 3.65901,-0.14221 5.47409,-0.39734 0.48221,-0.0567 0.96363,0.14136 1.21913,0.56683 0.28354,0.42615 0.28354,0.93623 0.029,1.36234 l -18.74684,31.03226 c -1.84314,3.00687 -0.90755,6.97875 2.09865,8.82238 1.02128,0.6244 2.15552,0.9362 3.31857,0.9362 2.24044,0 4.2822,-1.16325 5.44528,-3.06363 z M 340.96702,314.11724 c 22.40509,0 40.41421,18.38109 40.41421,40.73407 l 0,50.06654 c 0,22.32498 -18.00912,40.73486 -40.41421,40.73486 -22.43313,0 -40.44226,-18.40988 -40.44226,-40.73486 l 0,-50.06654 c 0,-22.32419 18.00913,-40.73407 40.44226,-40.73407 z m 25.12771,90.80061 c 0,13.89996 -11.20214,25.33187 -25.12771,25.33187 -13.95361,0 -25.15576,-11.43191 -25.15576,-25.33187 l 0,-50.06654 c 0,-13.89997 11.20215,-25.33108 25.15576,-25.33108 13.92557,0 25.12771,11.43111 25.12771,25.33108 z m -2.55202,0 0,-50.06654 c 0,-12.48168 -10.0679,-22.77833 -22.57569,-22.77833 -12.53504,0 -22.60294,10.29665 -22.60294,22.77833 l 0,50.06654 c 0,12.48164 10.0679,22.7783 22.60294,22.7783 12.50779,0 22.57569,-10.29666 22.57569,-22.7783 z m -22.57569,-88.24786 c -21.01532,0 -37.88944,17.24664 -37.88944,38.18132 l 0,50.06654 c 0,20.93468 16.87412,38.18131 37.88944,38.18131 20.98728,0 37.86219,-17.24663 37.86219,-38.18131 l 0,-50.06654 c 0,-20.93468 -16.87491,-38.18132 -37.86219,-38.18132 z m 217.35836,69.15761 c 0,89.89319 -72.20714,163.64627 -162.36655,163.64627 -90.15859,0 -162.33738,-73.75308 -162.33738,-163.64627 0,-45.78368 18.83159,-89.24162 52.41087,-120.38739 19.56927,-18.18365 43.33526,-31.31689 69.22876,-38.03982 0.68083,-0.17025 1.36169,0.22691 1.5315,0.90742 0.19868,0.68118 -0.22677,1.39032 -0.90752,1.56061 -25.46816,6.63738 -48.83765,19.54438 -68.12273,37.44339 -33.06877,30.66448 -51.58838,73.44126 -51.58838,118.51579 0,88.4749 71.04407,161.09347 159.78488,161.09347 88.74163,0 159.81374,-72.61857 159.81374,-161.09347 0,-0.68119 0.5671,-1.2768 1.27601,-1.2768 0.7089,0 1.2768,0.59561 1.2768,1.2768 z m -33.38134,137.63402 c -14.06654,13.36111 -30.11882,24.53719 -47.58965,33.019 -0.62401,0.31179 -1.38897,0.0283 -1.70135,-0.59564 -0.3116,-0.62441 -0.0284,-1.39029 0.59595,-1.70211 17.21453,-8.33949 33.06814,-19.37406 46.93686,-32.59285 0.51023,-0.48291 1.30484,-0.45413 1.78703,0.0567 0.51026,0.51008 0.48222,1.33277 -0.029,1.81486 z M 212.94638,343.24909 c 10.94733,-47.71205 39.53501,-89.09933 80.45979,-115.9902 0.59598,-0.39736 1.38977,-0.22691 1.78707,0.36855 0.36846,0.56685 0.19782,1.36155 -0.36926,1.75889 -40.41398,26.52232 -68.60469,67.34195 -79.38184,114.4304 -0.17001,0.70915 -0.85081,1.13447 -1.53148,0.96419 -0.68066,-0.14165 -1.10608,-0.82269 -0.96428,-1.53183 z m 201.19221,-92.38921 c -2.38221,-2.58158 -3.94258,-6.58141 -4.87818,-9.1342 -1.30484,-3.68805 -2.29729,-7.54559 -3.1768,-11.34718 -0.9636,-4.28286 -1.72939,-8.62332 -2.43909,-12.96295 -1.30402,-8.3115 -2.29729,-16.70777 -3.0342,-25.10482 -0.36849,-3.85754 -0.68087,-7.74389 -0.90756,-11.60143 -0.029,-0.56765 0.25544,-1.02175 0.76576,-1.24881 4.11239,-1.81483 6.80621,-5.92823 6.80621,-10.46693 0,-4.53872 -2.7507,-8.70807 -6.91994,-10.49574 -0.65203,-0.28379 -0.96443,-1.02093 -0.68086,-1.67333 0.28436,-0.65238 1.02128,-0.9362 1.6733,-0.68115 5.13368,2.21298 8.48032,7.29054 8.48032,12.85022 0,5.24784 -2.94932,10.01363 -7.54393,12.39611 0.22678,3.57453 0.53907,7.14825 0.85068,10.69401 0.76575,8.34028 1.73018,16.67977 3.03503,24.93451 0.68006,4.28368 1.44582,8.56657 2.41025,12.79346 0.85067,3.71603 1.81507,7.46007 3.09108,11.0346 0.96443,2.6663 3.65902,9.7298 7.23235,10.01363 l 6.77814,0 0,-7.29059 -8.67816,0 c -0.68084,0 -1.27681,-0.56762 -1.27681,-1.27676 0,-0.68038 0.59597,-1.27599 1.27681,-1.27599 l 8.67816,0 0,-30.23916 -15.82556,0 c -0.70891,0 -1.27601,-0.56685 -1.27601,-1.276 0,-0.70915 0.5671,-1.27679 1.27601,-1.27679 l 17.10157,0 c 0.7097,0 1.27681,0.56764 1.27681,1.27679 l 0,32.79115 0,0.14221 0,9.70104 c 0,0.70915 -0.56711,1.27676 -1.27681,1.27676 l -7.68569,0 -0.16973,0 -0.3124,0 -45.7177,0 -0.25487,0 -0.11382,0 -7.71373,0 c -0.7097,0 -1.27684,-0.56761 -1.27684,-1.27676 l 0,-42.63448 c 0,-0.70915 0.56714,-1.2768 1.27684,-1.2768 l 17.01586,0 c 0.68086,0 1.27683,0.56765 1.27683,1.2768 0,0.70914 -0.59597,1.27599 -1.27683,1.27599 l -15.73985,0 0,30.23916 8.5652,0 c 0.70891,0 1.27601,0.59561 1.27601,1.276 0,0.70914 -0.5671,1.27677 -1.27601,1.27677 l -8.5652,0 0,7.29057 6.7501,0 c 3.54449,-0.22719 6.29596,-7.34732 7.26039,-10.01362 1.27601,-3.57454 2.24041,-7.31857 3.09108,-11.0346 0.93559,-4.22689 1.73019,-8.50979 2.41025,-12.79346 1.30485,-8.25474 2.26925,-16.59424 3.0062,-24.93452 0.34042,-3.54576 0.62398,-7.11948 0.85147,-10.69401 -4.59461,-2.38248 -7.51589,-7.17622 -7.51589,-12.3961 0,-5.55968 3.34661,-10.63724 8.45148,-12.85023 0.652,-0.25496 1.38974,0.0289 1.67331,0.68115 0.28353,0.65241 -0.0284,1.38954 -0.65203,1.67334 -4.19731,1.78766 -6.91994,5.92903 -6.91994,10.49574 0,4.51074 2.66578,8.62332 6.80618,10.46693 0.51026,0.19914 0.79383,0.68116 0.76579,1.22002 -0.22678,3.88633 -0.56714,7.77267 -0.90756,11.63022 -0.76575,8.39704 -1.73018,16.79331 -3.06307,25.10481 -0.68086,4.33964 -1.47466,8.68009 -2.43906,12.96296 -0.85067,3.80158 -1.84314,7.65913 -3.17603,11.31839 -0.90753,2.58158 -2.49594,6.5814 -4.85011,9.16298 z m -16.90296,-315.975252 0,227.528332 c 0,0.70914 -0.5679,1.27596 -1.2768,1.27596 -0.70888,0 -1.27601,-0.56682 -1.27601,-1.27596 l 0,-227.528332 c 0,-0.709174 0.56713,-1.276508 1.27601,-1.276508 0.7089,0 1.2768,0.567334 1.2768,1.276508 z m -4.16924,273.339962 5.81374,0 c 0.68086,0 1.27601,0.56764 1.27601,1.27679 0,0.70915 -0.59515,1.276 -1.27601,1.276 l -5.81374,0 c -0.7089,0 -1.27601,-0.56685 -1.27601,-1.276 0,-0.70915 0.56711,-1.27679 1.27601,-1.27679 z m 11.68433,35.3447 -17.58379,0 c -0.68006,0 -1.27601,-0.56762 -1.27601,-1.27676 0,-0.68038 0.59595,-1.27599 1.27601,-1.27599 l 17.58379,0 c 0.70891,0 1.27684,0.59561 1.27684,1.27599 0,0.70914 -0.56793,1.27676 -1.27684,1.27676 z m 31.6792,-16.22567 c 13.81184,3.57453 27.11343,8.9919 39.50666,16.05539 0.62399,0.36859 0.82264,1.13447 0.48222,1.75889 -0.34042,0.59563 -1.13424,0.82268 -1.75823,0.4541 -12.19538,-6.94999 -25.26948,-12.28338 -38.88268,-15.80035 -0.68086,-0.17026 -1.07815,-0.87943 -0.90755,-1.56059 0.16973,-0.68036 0.87872,-1.10571 1.55958,-0.90744 z m 169.99537,115.8487 c -3.40349,5.70198 -8.93366,9.72982 -15.40022,11.20489 -6.09731,1.39029 -12.45012,0.34056 -17.81048,-2.92135 -5.38841,-3.29072 -9.24607,-8.48182 -10.86253,-14.58033 -1.70134,-6.38313 -0.73691,-13.21879 2.66578,-18.92076 3.37545,-5.64521 8.84877,-9.64506 15.25846,-11.12013 6.15416,-1.44628 12.56387,-0.39653 17.95225,2.89415 5.3884,3.26193 9.24609,8.45303 10.86252,14.52356 1.70135,6.41033 0.76576,13.24677 -2.66578,18.91997 z m -2.18435,-1.30478 c 3.06307,-5.10555 3.91374,-11.20486 2.38221,-16.96279 -1.44583,-5.44692 -4.90619,-10.07042 -9.69863,-12.99175 -4.82209,-2.95012 -10.55091,-3.88632 -16.05228,-2.61033 -5.75766,1.33357 -10.6358,4.93607 -13.67004,9.98564 -3.06307,5.07759 -3.91375,11.20409 -2.38221,16.93485 1.44582,5.4461 4.90619,10.09835 9.72749,13.04847 4.79323,2.92134 10.43636,3.85757 15.91048,2.60956 5.7857,-1.30478 10.74877,-4.90728 13.78298,-10.01365 z m -7.45901,-110.40253 -77.28314,128.86918 c -0.36849,0.59564 -1.13424,0.7947 -1.75823,0.42535 -0.59514,-0.36858 -0.79379,-1.13449 -0.42533,-1.75809 l 77.28314,-128.86921 c 0.36849,-0.59643 1.13424,-0.7947 1.75822,-0.42611 0.59595,0.36934 0.79462,1.13526 0.42534,1.75888 z m -49.88618,39.71311 c 3.06308,-5.07755 3.91375,-11.17607 2.38221,-16.93481 -1.44661,-5.44614 -4.90619,-10.09838 -9.72746,-13.01972 -4.82209,-2.95013 -10.5221,-3.85834 -16.02424,-2.61035 -5.75765,1.33355 -10.63501,4.93605 -13.67004,9.98566 -3.06307,5.10554 -3.91375,11.20406 -2.38221,16.93481 1.44662,5.47414 4.90619,10.09839 9.69945,13.04851 4.79323,2.92134 10.4652,3.85754 15.93849,2.60953 5.7857,-1.30475 10.72076,-4.90728 13.7838,-10.01363 z"
       style="fill:url(#linearGradient4879);fill-opacity:1;fill-rule:evenodd;stroke:none"
       sodipodi:nodetypes="ccccccccccccsccccccccscccscccscccsscccscccscccscccscccsscccccccscccscccccsccssssssssssssssssssssssssssssssscccccsssssccccccccccccccccccccccscccsccccccccsssccsssssccssccccccsssssssccsssccccccccscccsccccccccsssssssssssssssssssssccccccccccccccccccccccccccccccccccccccccc" />
  </g>
</svg>
