<?xml version="1.0" encoding="iso-8859-1"?>
<!-- Generator: Adobe Illustrator 18.1.1, SVG Export Plug-In . SVG Version: 6.00 Build 0)  -->
<svg version="1.1" id="&#x421;&#x43B;&#x43E;&#x439;_1"
	 xmlns="http://www.w3.org/2000/svg" xmlns:xlink="http://www.w3.org/1999/xlink" x="0px" y="0px" viewBox="0 0 16 3.07"
	 style="enable-background:new 0 0 16 3.07;" xml:space="preserve">
<g>
	<path style="fill-rule:evenodd;clip-rule:evenodd;fill:#AEBBC2;" d="M4.775,2.465L4.284,1.802V2.93H3.979V1.304h0.29L4.78,1.995
		l0.511-0.691h0.278V2.93H5.263V1.81L4.775,2.465L4.775,2.465z M6.04,1.583h0.913V1.297H6.04H5.988H5.736V2.93h0.252H6.04H6.99
		V2.645H6.04V2.209h0.857V1.924H6.04V1.583L6.04,1.583z"/>
	<path style="fill-rule:evenodd;clip-rule:evenodd;fill:#AEBBC2;" d="M2.982,2.972c0.467,0,0.874-0.34,0.874-0.855
		c0-0.515-0.407-0.855-0.874-0.855c-0.467,0-0.874,0.34-0.874,0.855C2.108,2.632,2.515,2.972,2.982,2.972L2.982,2.972z M2.982,2.678
		c-0.313,0-0.546-0.25-0.546-0.561c0-0.312,0.233-0.562,0.546-0.562c0.313,0,0.546,0.25,0.546,0.562
		C3.528,2.428,3.295,2.678,2.982,2.678L2.982,2.678z"/>
	<path style="fill-rule:evenodd;clip-rule:evenodd;fill:#AEBBC2;" d="M1.675,1.297v0.608H0.86V1.297H0.556V2.93H0.86V2.209h0.815
		V2.93h0.304V1.297H1.675L1.675,1.297z M1.261,0.543l0.655,0.576h0.458L1.978,0.766V0.159H1.674v0.335L1.261,0.125l-1.13,0.992
		v0.002h0.472L1.261,0.543L1.261,0.543z"/>
	<path style="fill-rule:evenodd;clip-rule:evenodd;fill:#AEBBC2;" d="M13.645,2.91h-0.472l-0.779-0.711V2.91h-0.33V1.299h0.33v0.708
		l0.796-0.708h0.457l-0.91,0.802L13.645,2.91L13.645,2.91z M10.025,2.748v0.164h0.322v-1.61h-0.322l0,0.164
		C9.906,1.348,9.71,1.26,9.471,1.26c-0.218,0-0.423,0.086-0.573,0.236C8.738,1.655,8.654,1.877,8.654,2.107
		c0,0.231,0.084,0.453,0.243,0.612c0.15,0.15,0.355,0.236,0.573,0.236C9.71,2.955,9.906,2.867,10.025,2.748L10.025,2.748z
		 M11.622,2.913l-0.822-1.116v1.117h-0.302V1.302h0.287l0.838,1.145L11.62,1.296h0.301v1.617L11.622,2.913L11.622,2.913z
		 M7.503,2.914L7.503,2.914L7.503,2.914h0.001h0.001h0.001h0.002H7.51h0.496c0.351,0,0.543-0.222,0.543-0.453
		c0-0.276-0.254-0.357-0.254-0.357S8.511,2.021,8.511,1.75c0-0.238-0.154-0.453-0.509-0.453H7.51H7.51H7.507H7.505H7.504H7.503h0
		H7.209v1.617H7.503L7.503,2.914z M13.73,2.749h0.181v0.16H13.73V2.749L13.73,2.749z M14.946,2.91h-0.273l-0.45-0.41v0.41h-0.19
		V1.98h0.19v0.409l0.46-0.409h0.264l-0.526,0.463L14.946,2.91L14.946,2.91z M15.014,2.768l0.594-0.632h-0.594V1.981h0.837
		c0,0.046,0,0.092,0,0.139l-0.595,0.636h0.612c0,0.052,0,0.104,0,0.155h-0.855V2.768L15.014,2.768z M7.51,1.564h0.534
		c0.113,0,0.186,0.092,0.186,0.205c0,0.113-0.073,0.205-0.187,0.205H7.51V1.564L7.51,1.564z M7.51,2.238h0.534
		c0.113,0,0.205,0.092,0.205,0.205c0,0.113-0.092,0.205-0.205,0.205H7.51V2.238L7.51,2.238z M10.04,2.107
		c0,0.334-0.23,0.557-0.53,0.557c-0.31,0-0.531-0.239-0.531-0.557c0-0.317,0.215-0.557,0.531-0.557
		C9.813,1.55,10.04,1.772,10.04,2.107L10.04,2.107z"/>
</g>
</svg>
