<?xml version="1.0" encoding="UTF-8" standalone="no"?>
<!-- Creator: CorelDRAW X6 -->

<svg
   xmlns:dc="http://purl.org/dc/elements/1.1/"
   xmlns:cc="http://creativecommons.org/ns#"
   xmlns:rdf="http://www.w3.org/1999/02/22-rdf-syntax-ns#"
   xmlns:svg="http://www.w3.org/2000/svg"
   xmlns="http://www.w3.org/2000/svg"
   xmlns:sodipodi="http://sodipodi.sourceforge.net/DTD/sodipodi-0.dtd"
   xmlns:inkscape="http://www.inkscape.org/namespaces/inkscape"
   xml:space="preserve"
   width="53.904446mm"
   height="11.853333mm"
   version="1.1"
   style="clip-rule:evenodd;fill-rule:evenodd;image-rendering:optimizeQuality;shape-rendering:geometricPrecision;text-rendering:geometricPrecision"
   viewBox="0 0 2408.8549 530.40274"
   id="svg2"
   inkscape:version="0.91 r13725"
   sodipodi:docname="logo-gray.svg"><metadata
     id="metadata14"><rdf:RDF><cc:Work
         rdf:about=""><dc:format>image/svg+xml</dc:format><dc:type
           rdf:resource="http://purl.org/dc/dcmitype/StillImage" /><dc:title></dc:title></cc:Work></rdf:RDF></metadata><sodipodi:namedview
     pagecolor="#ffffff"
     bordercolor="#666666"
     borderopacity="1"
     objecttolerance="10"
     gridtolerance="10"
     guidetolerance="10"
     inkscape:pageopacity="0"
     inkscape:pageshadow="2"
     inkscape:window-width="1366"
     inkscape:window-height="687"
     id="namedview12"
     showgrid="false"
     fit-margin-top="0"
     fit-margin-left="0"
     fit-margin-right="0"
     fit-margin-bottom="0"
     inkscape:zoom="3.3513889"
     inkscape:cx="56.617356"
     inkscape:cy="12.590433"
     inkscape:window-x="-8"
     inkscape:window-y="-8"
     inkscape:window-maximized="1"
     inkscape:current-layer="svg2" /><defs
     id="defs4"><style
       type="text/css"
       id="style6"><![CDATA[
    .fil0 {fill:black}
   ]]></style></defs><g
     id="Слой_x0020_1"
     transform="matrix(1.6867619,0,0,1.6679331,-0.95419083,0)"
     style="fill:#b0bec5;fill-opacity:1"><metadata
       id="CorelCorpID_0Corel-Layer" /><path
       class="fil0"
       d="m 929,218 c -13,7 -29,10 -47,10 -25,0 -44,-8 -59,-23 -15,-16 -22,-36 -22,-61 0,-27 8,-48 25,-65 16,-16 37,-25 62,-25 17,0 30,3 41,7 l 0,28 c -12,-7 -24,-10 -38,-10 -18,0 -33,6 -44,17 -11,12 -17,27 -17,47 0,18 5,33 16,44 11,11 24,16 42,16 15,0 29,-3 41,-11 l 0,26 z m -142,41 -39,-39 20,-20 58,59 0,0 0,0 -58,59 0,0 -20,-20 39,-39 z m -45,15 -127,0 0,-28 79,-78 c 20,-20 34,-37 42,-50 9,-14 13,-28 13,-43 0,-16 -4,-28 -13,-36 -9,-9 -22,-13 -38,-13 -24,0 -47,10 -69,31 l 0,-32 C 650,8 674,0 702,0 c 24,0 43,7 57,20 14,13 21,30 21,52 0,17 -5,34 -15,51 -9,16 -26,36 -51,61 l -62,61 0,1 90,0 16,12 -16,16 z M 516,81 l 0,120 22,0 c 19,0 35,-5 46,-16 10,-10 16,-26 16,-45 0,-40 -20,-59 -61,-59 l -23,0 z m -28,144 0,-168 48,0 c 62,0 93,27 93,82 0,26 -8,47 -26,62 -17,16 -40,24 -69,24 l -46,0 z M 360,80 l 0,54 24,0 c 4,0 8,0 11,-2 4,-1 7,-3 10,-6 3,-2 5,-5 6,-9 2,-3 2,-7 2,-12 0,-8 -2,-14 -7,-19 -5,-4 -13,-6 -22,-6 l -24,0 z m 102,145 -32,0 -27,-45 c -2,-4 -5,-8 -7,-11 -2,-2 -5,-5 -7,-7 -3,-2 -5,-3 -8,-4 -3,-1 -6,-1 -9,-1 l -12,0 0,68 -27,0 0,-168 55,0 c 8,0 15,1 22,3 6,2 12,5 17,8 5,4 9,9 12,15 2,5 4,12 4,19 0,6 -1,12 -3,17 -2,5 -4,9 -7,13 -4,4 -8,7 -12,10 -5,3 -10,5 -16,6 l 0,1 c 3,1 6,3 8,5 3,2 5,5 7,7 2,2 4,4 6,7 2,3 4,6 6,10 l 30,47 z M 250,160 227,93 c -1,-3 -1,-6 -2,-11 l -1,0 c 0,4 -1,8 -2,11 l -23,67 51,0 z m 54,65 -31,0 -15,-43 -66,0 -15,43 -30,0 63,-168 31,0 63,168 z M 128,218 C 115,225 99,228 81,228 56,228 37,220 22,205 7,189 0,169 0,144 0,117 8,96 25,79 41,63 62,54 87,54 c 17,0 30,3 41,7 l 0,28 C 116,82 104,79 90,79 72,79 57,85 46,96 c -11,12 -17,27 -17,47 0,18 5,33 16,44 11,11 24,16 42,16 15,0 29,-3 41,-11 l 0,26 z m 1189,-137 0,120 22,0 c 20,0 35,-5 46,-16 11,-10 16,-26 16,-45 0,-40 -20,-59 -61,-59 l -23,0 z m -28,144 0,-168 48,0 c 62,0 93,27 93,82 0,26 -8,47 -26,62 -17,16 -40,24 -69,24 l -46,0 z m -128,-145 0,54 24,0 c 4,0 8,0 11,-2 4,-1 7,-3 10,-6 3,-2 5,-5 6,-9 2,-3 2,-7 2,-12 0,-8 -2,-14 -7,-19 -5,-4 -13,-6 -22,-6 l -24,0 z m 102,145 -32,0 -27,-45 c -2,-4 -5,-8 -7,-11 -2,-2 -5,-5 -7,-7 -2,-2 -5,-3 -8,-4 -3,-1 -6,-1 -9,-1 l -12,0 0,68 -27,0 0,-168 55,0 c 8,0 15,1 22,3 6,2 12,5 17,8 5,4 9,9 12,15 2,5 4,12 4,19 0,6 -1,12 -3,17 -2,5 -4,9 -7,13 -4,4 -8,7 -12,10 -5,3 -10,5 -16,6 l 0,1 c 4,1 6,3 8,5 3,2 5,5 7,7 2,2 4,4 6,7 2,3 4,6 7,10 l 29,47 z m -211,-65 -24,-67 c 0,-3 -1,-6 -2,-11 l 0,0 c -1,4 -2,8 -3,11 l -23,67 52,0 z m 53,65 -31,0 -15,-43 -66,0 -15,43 -30,0 63,-168 31,0 63,168 z"
       id="path10"
       inkscape:connector-curvature="0"
       style="fill:#b0bec5;fill-opacity:1" /></g></svg>